<mxfile host="app.diagrams.net" modified="2020-08-13T10:39:24.156Z" agent="5.0 (Windows NT 10.0; Win64; x64) AppleWebKit/537.36 (KHTML, like Gecko) Chrome/83.0.4103.61 Safari/537.36" etag="XgYHg1XMDzP9VSu79JFq" compressed="false" version="13.6.2" type="github">
  <diagram name="Page-1" id="74e2e168-ea6b-b213-b513-2b3c1d86103e">
    <mxGraphModel dx="1422" dy="762" grid="1" gridSize="10" guides="1" tooltips="1" connect="1" arrows="1" fold="1" page="1" pageScale="1" pageWidth="1654" pageHeight="1169" background="#ffffff" math="0" shadow="0">
      <root>
        <mxCell id="0" />
        <mxCell id="1" style="" parent="0" />
        <mxCell id="WWWGr8wKS7NOQKFkhAS5-62" style="edgeStyle=orthogonalEdgeStyle;rounded=0;orthogonalLoop=1;jettySize=auto;html=1;entryX=1;entryY=0.25;entryDx=0;entryDy=0;endArrow=classic;endFill=0;strokeWidth=2;fontSize=12;exitX=0.5;exitY=1;exitDx=0;exitDy=0;jumpStyle=arc;strokeColor=#FF9933;" parent="1" source="WWWGr8wKS7NOQKFkhAS5-61" target="WWWGr8wKS7NOQKFkhAS5-57" edge="1">
          <mxGeometry relative="1" as="geometry">
            <Array as="points">
              <mxPoint x="520" y="360" />
              <mxPoint x="520" y="505" />
            </Array>
          </mxGeometry>
        </mxCell>
        <mxCell id="4UiRcspPQ9_xsY6W7M90-56" value="&lt;font style=&quot;font-size: 20px&quot;&gt;M1-M4&lt;/font&gt;" style="verticalLabelPosition=middle;shadow=0;dashed=0;align=center;html=1;verticalAlign=middle;strokeWidth=1;shape=ellipse;fontSize=32;perimeter=ellipsePerimeter;" parent="1" vertex="1">
          <mxGeometry x="1484.3899999999999" y="690" width="100" height="100" as="geometry" />
        </mxCell>
        <mxCell id="4UiRcspPQ9_xsY6W7M90-65" style="edgeStyle=orthogonalEdgeStyle;rounded=0;orthogonalLoop=1;jettySize=auto;html=1;exitX=0.5;exitY=1;exitDx=0;exitDy=0;strokeWidth=2;" parent="1" source="w2lD-hBrVrexgJdN9BYj-25" target="4UiRcspPQ9_xsY6W7M90-56" edge="1">
          <mxGeometry relative="1" as="geometry">
            <mxPoint x="1461.22" y="612.4827586206897" as="sourcePoint" />
          </mxGeometry>
        </mxCell>
        <mxCell id="w2lD-hBrVrexgJdN9BYj-8" style="edgeStyle=orthogonalEdgeStyle;rounded=0;orthogonalLoop=1;jettySize=auto;html=1;strokeWidth=2;" parent="1" source="w2lD-hBrVrexgJdN9BYj-7" target="4UiRcspPQ9_xsY6W7M90-61" edge="1">
          <mxGeometry relative="1" as="geometry" />
        </mxCell>
        <mxCell id="w2lD-hBrVrexgJdN9BYj-7" value="&lt;font style=&quot;font-size: 20px&quot;&gt;PIDSum&lt;/font&gt;" style="shape=or;whiteSpace=wrap;html=1;" parent="1" vertex="1">
          <mxGeometry x="1350" y="447.5" width="90" height="80" as="geometry" />
        </mxCell>
        <mxCell id="w2lD-hBrVrexgJdN9BYj-17" style="edgeStyle=orthogonalEdgeStyle;rounded=0;orthogonalLoop=1;jettySize=auto;html=1;strokeWidth=2;exitX=0.5;exitY=1;exitDx=0;exitDy=0;" parent="1" source="w2lD-hBrVrexgJdN9BYj-13" target="4UiRcspPQ9_xsY6W7M90-61" edge="1">
          <mxGeometry relative="1" as="geometry">
            <Array as="points">
              <mxPoint x="1496" y="310" />
              <mxPoint x="1534" y="310" />
            </Array>
          </mxGeometry>
        </mxCell>
        <mxCell id="g_LAPnDDZJ9LDUpSgcGy-13" style="edgeStyle=orthogonalEdgeStyle;rounded=0;jumpStyle=arc;orthogonalLoop=1;jettySize=auto;html=1;exitX=0.5;exitY=1;exitDx=0;exitDy=0;strokeColor=#FFF2CC;strokeWidth=3;" parent="1" source="w2lD-hBrVrexgJdN9BYj-13" edge="1">
          <mxGeometry relative="1" as="geometry">
            <mxPoint x="1495.2352941176473" y="130" as="targetPoint" />
          </mxGeometry>
        </mxCell>
        <mxCell id="w2lD-hBrVrexgJdN9BYj-13" value="&lt;div class=&quot;page&quot; title=&quot;Page 1&quot;&gt;&lt;div class=&quot;section&quot;&gt;&lt;div class=&quot;layoutArea&quot;&gt;&lt;div class=&quot;column&quot;&gt;&lt;p&gt;&lt;span style=&quot;font-family: &amp;#34;liberationsans&amp;#34;&quot;&gt;&lt;font style=&quot;font-size: 10px&quot;&gt;vbat_pid_gain&lt;/font&gt;&lt;/span&gt;&lt;/p&gt;&lt;/div&gt;&lt;/div&gt;&lt;/div&gt;&lt;/div&gt;" style="shape=process;whiteSpace=wrap;html=1;backgroundOutline=1;strokeWidth=2;size=0.12299934224950698;strokeColor=#FFD966;fillColor=none;" parent="1" vertex="1">
          <mxGeometry x="1430" y="110" width="111.22" height="30" as="geometry" />
        </mxCell>
        <mxCell id="w2lD-hBrVrexgJdN9BYj-22" style="edgeStyle=orthogonalEdgeStyle;rounded=0;orthogonalLoop=1;jettySize=auto;html=1;entryX=1;entryY=0.5;entryDx=0;entryDy=0;exitX=0.5;exitY=1;exitDx=0;exitDy=0;strokeWidth=2;" parent="1" source="w2lD-hBrVrexgJdN9BYj-18" target="4UiRcspPQ9_xsY6W7M90-56" edge="1">
          <mxGeometry relative="1" as="geometry">
            <mxPoint x="1610" y="459.9999999999999" as="targetPoint" />
            <Array as="points">
              <mxPoint x="1580" y="310" />
              <mxPoint x="1620" y="310" />
              <mxPoint x="1620" y="740" />
            </Array>
          </mxGeometry>
        </mxCell>
        <mxCell id="w2lD-hBrVrexgJdN9BYj-18" value="&lt;div class=&quot;page&quot; title=&quot;Page 1&quot;&gt;&lt;div class=&quot;section&quot;&gt;&lt;div class=&quot;layoutArea&quot;&gt;&lt;div class=&quot;column&quot;&gt;&lt;div class=&quot;page&quot; title=&quot;Page 1&quot;&gt;&lt;div class=&quot;section&quot;&gt;&lt;div class=&quot;layoutArea&quot;&gt;&lt;div class=&quot;column&quot;&gt;&lt;p&gt;&lt;span style=&quot;font-family: &amp;#34;liberationsans&amp;#34;&quot;&gt;&lt;font style=&quot;font-size: 10px&quot;&gt;vbat_sag_compensation&lt;/font&gt;&lt;/span&gt;&lt;/p&gt;&lt;/div&gt;&lt;/div&gt;&lt;/div&gt;&lt;/div&gt;&lt;/div&gt;&lt;/div&gt;&lt;/div&gt;&lt;/div&gt;" style="shape=process;whiteSpace=wrap;html=1;backgroundOutline=1;strokeWidth=2;size=0.07692307692307693;strokeColor=#FFD966;fillColor=none;" parent="1" vertex="1">
          <mxGeometry x="1490" y="44" width="140" height="30" as="geometry" />
        </mxCell>
        <mxCell id="w2lD-hBrVrexgJdN9BYj-20" style="edgeStyle=orthogonalEdgeStyle;rounded=0;orthogonalLoop=1;jettySize=auto;html=1;strokeWidth=2;exitX=1;exitY=0.5;exitDx=0;exitDy=0;entryX=0;entryY=0.5;entryDx=0;entryDy=0;" parent="1" source="w2lD-hBrVrexgJdN9BYj-15" target="w2lD-hBrVrexgJdN9BYj-18" edge="1">
          <mxGeometry relative="1" as="geometry">
            <Array as="points">
              <mxPoint x="1330" y="58" />
              <mxPoint x="1490" y="59" />
            </Array>
            <mxPoint x="1420" y="40" as="targetPoint" />
          </mxGeometry>
        </mxCell>
        <mxCell id="w2lD-hBrVrexgJdN9BYj-24" style="edgeStyle=orthogonalEdgeStyle;rounded=0;orthogonalLoop=1;jettySize=auto;html=1;entryX=0.5;entryY=1;entryDx=0;entryDy=0;strokeWidth=2;" parent="1" source="w2lD-hBrVrexgJdN9BYj-23" target="4UiRcspPQ9_xsY6W7M90-56" edge="1">
          <mxGeometry relative="1" as="geometry" />
        </mxCell>
        <mxCell id="w2lD-hBrVrexgJdN9BYj-23" value="&lt;div class=&quot;page&quot; title=&quot;Page 1&quot;&gt;&lt;div class=&quot;section&quot;&gt;&lt;div class=&quot;layoutArea&quot;&gt;&lt;div class=&quot;column&quot;&gt;&lt;div class=&quot;page&quot; title=&quot;Page 1&quot;&gt;&lt;div class=&quot;section&quot; style=&quot;background-color: rgb(255 , 255 , 255)&quot;&gt;&lt;div class=&quot;layoutArea&quot;&gt;&lt;div class=&quot;column&quot;&gt;&lt;p&gt;&lt;span style=&quot;font-family: &amp;#34;liberationsans&amp;#34;&quot;&gt;&lt;font style=&quot;font-size: 10px&quot;&gt;motor_output_limit&lt;/font&gt;&lt;/span&gt;&lt;/p&gt;&lt;/div&gt;&lt;/div&gt;&lt;/div&gt;&lt;/div&gt;&lt;/div&gt;&lt;/div&gt;&lt;/div&gt;&lt;/div&gt;" style="shape=process;whiteSpace=wrap;html=1;backgroundOutline=1;strokeWidth=1;size=0.07692307692307693;fillColor=#FFFFFF;" parent="1" vertex="1">
          <mxGeometry x="1474.3899999999999" y="840" width="120" height="40" as="geometry" />
        </mxCell>
        <mxCell id="w2lD-hBrVrexgJdN9BYj-26" style="edgeStyle=orthogonalEdgeStyle;rounded=0;orthogonalLoop=1;jettySize=auto;html=1;entryX=0.5;entryY=0;entryDx=0;entryDy=0;strokeWidth=2;" parent="1" source="4UiRcspPQ9_xsY6W7M90-61" target="w2lD-hBrVrexgJdN9BYj-25" edge="1">
          <mxGeometry relative="1" as="geometry" />
        </mxCell>
        <mxCell id="hB5kVmbyOagr3X4HZB57-6" style="edgeStyle=orthogonalEdgeStyle;rounded=0;jumpStyle=arc;orthogonalLoop=1;jettySize=auto;html=1;entryX=1;entryY=0.5;entryDx=0;entryDy=0;strokeWidth=2;exitX=0.25;exitY=1;exitDx=0;exitDy=0;" parent="1" source="4UiRcspPQ9_xsY6W7M90-61" target="g_LAPnDDZJ9LDUpSgcGy-46" edge="1">
          <mxGeometry relative="1" as="geometry">
            <Array as="points">
              <mxPoint x="1507" y="560" />
            </Array>
          </mxGeometry>
        </mxCell>
        <UserObject label="Mixer" treeRoot="1" id="4UiRcspPQ9_xsY6W7M90-61">
          <mxCell style="whiteSpace=wrap;html=1;align=center;treeFolding=1;treeMoving=1;newEdgeStyle={&quot;edgeStyle&quot;:&quot;elbowEdgeStyle&quot;,&quot;startArrow&quot;:&quot;none&quot;,&quot;endArrow&quot;:&quot;none&quot;};rounded=0;rotation=0;" parent="1" vertex="1">
            <mxGeometry x="1478.78" y="450" width="111.22" height="75" as="geometry" />
          </mxCell>
        </UserObject>
        <mxCell id="w2lD-hBrVrexgJdN9BYj-25" value="&lt;div class=&quot;page&quot; title=&quot;Page 1&quot;&gt;&lt;div class=&quot;section&quot;&gt;&lt;div class=&quot;layoutArea&quot;&gt;&lt;div class=&quot;column&quot;&gt;&lt;div class=&quot;page&quot; title=&quot;Page 1&quot;&gt;&lt;div class=&quot;section&quot; style=&quot;background-color: rgb(255 , 255 , 255)&quot;&gt;&lt;div class=&quot;layoutArea&quot;&gt;&lt;div class=&quot;column&quot;&gt;&lt;p&gt;&lt;i&gt;&lt;font style=&quot;font-size: 10px&quot;&gt;thrust_linear (4.0)&lt;/font&gt;&lt;/i&gt;&lt;br&gt;&lt;/p&gt;&lt;/div&gt;&lt;/div&gt;&lt;/div&gt;&lt;/div&gt;&lt;/div&gt;&lt;/div&gt;&lt;/div&gt;&lt;/div&gt;" style="shape=process;whiteSpace=wrap;html=1;backgroundOutline=1;strokeWidth=1;size=0.07692307692307693;fillColor=#99CCFF;" parent="1" vertex="1">
          <mxGeometry x="1478.78" y="587.5" width="111.22" height="40" as="geometry" />
        </mxCell>
        <mxCell id="YZIkhoDz0om83u3jAHZu-12" value="Box / Frame color coding" style="swimlane;fillColor=#FFF4C3;" parent="1" vertex="1">
          <mxGeometry x="300" y="1020" width="260" height="130" as="geometry" />
        </mxCell>
        <mxCell id="g_LAPnDDZJ9LDUpSgcGy-12" value="" style="rounded=0;whiteSpace=wrap;html=1;fontSize=10;fillColor=none;strokeColor=#E1D5E7;" parent="YZIkhoDz0om83u3jAHZu-12" vertex="1">
          <mxGeometry x="80" y="85" width="45" height="30" as="geometry" />
        </mxCell>
        <mxCell id="g_LAPnDDZJ9LDUpSgcGy-9" value="" style="rounded=0;whiteSpace=wrap;html=1;fillColor=#FFFFFF;fontSize=10;strokeColor=#B9E0A5;" parent="YZIkhoDz0om83u3jAHZu-12" vertex="1">
          <mxGeometry x="80" y="43" width="45" height="30" as="geometry" />
        </mxCell>
        <mxCell id="g_LAPnDDZJ9LDUpSgcGy-10" value="" style="rounded=0;whiteSpace=wrap;html=1;fillColor=#FFFFFF;fontSize=10;strokeColor=#A9C4EB;" parent="YZIkhoDz0om83u3jAHZu-12" vertex="1">
          <mxGeometry x="140" y="43" width="45" height="30" as="geometry" />
        </mxCell>
        <mxCell id="g_LAPnDDZJ9LDUpSgcGy-8" value="" style="rounded=0;whiteSpace=wrap;html=1;fontSize=10;strokeColor=#FFD966;fillColor=none;" parent="YZIkhoDz0om83u3jAHZu-12" vertex="1">
          <mxGeometry x="25" y="43" width="45" height="30" as="geometry" />
        </mxCell>
        <mxCell id="YZIkhoDz0om83u3jAHZu-13" value="VBAT" style="rounded=0;whiteSpace=wrap;html=1;dashed=1;fontSize=10;strokeColor=none;fillColor=#FFD966;" parent="YZIkhoDz0om83u3jAHZu-12" vertex="1">
          <mxGeometry x="15" y="50" width="50" height="30" as="geometry" />
        </mxCell>
        <mxCell id="YZIkhoDz0om83u3jAHZu-15" value="Gyro" style="rounded=0;whiteSpace=wrap;html=1;dashed=1;fillColor=#97D077;fontSize=10;strokeColor=none;" parent="YZIkhoDz0om83u3jAHZu-12" vertex="1">
          <mxGeometry x="75" y="50" width="45" height="30" as="geometry" />
        </mxCell>
        <mxCell id="YZIkhoDz0om83u3jAHZu-14" value="Throttle" style="rounded=0;whiteSpace=wrap;html=1;dashed=1;fillColor=#A9C4EB;fontSize=10;strokeColor=none;" parent="YZIkhoDz0om83u3jAHZu-12" vertex="1">
          <mxGeometry x="135" y="50" width="45" height="30" as="geometry" />
        </mxCell>
        <mxCell id="YZIkhoDz0om83u3jAHZu-17" value="ESC" style="rounded=0;whiteSpace=wrap;html=1;dashed=1;fillColor=#FFF4C3;fontSize=10;strokeColor=none;" parent="YZIkhoDz0om83u3jAHZu-12" vertex="1">
          <mxGeometry x="15" y="90" width="50" height="30" as="geometry" />
        </mxCell>
        <mxCell id="YZIkhoDz0om83u3jAHZu-16" value="RC" style="rounded=0;whiteSpace=wrap;html=1;dashed=1;fillColor=#E6D0DE;fontSize=10;strokeColor=none;" parent="YZIkhoDz0om83u3jAHZu-12" vertex="1">
          <mxGeometry x="75" y="90" width="45" height="30" as="geometry" />
        </mxCell>
        <mxCell id="YZIkhoDz0om83u3jAHZu-40" value="&lt;font style=&quot;font-size: 10px;&quot;&gt;Internal Processing&lt;/font&gt;" style="rounded=0;whiteSpace=wrap;html=1;dashed=1;fillColor=#FFFFFF;fontSize=10;dashPattern=1 2;" parent="YZIkhoDz0om83u3jAHZu-12" vertex="1">
          <mxGeometry x="135" y="90" width="50" height="30" as="geometry" />
        </mxCell>
        <mxCell id="g_LAPnDDZJ9LDUpSgcGy-11" value="" style="rounded=0;whiteSpace=wrap;html=1;fontSize=10;fillColor=none;strokeColor=#FFF2CC;" parent="YZIkhoDz0om83u3jAHZu-12" vertex="1">
          <mxGeometry x="25" y="85" width="45" height="30" as="geometry" />
        </mxCell>
        <mxCell id="YZIkhoDz0om83u3jAHZu-18" value="Graphical identifier" style="swimlane;fillColor=#FFF4C3;" parent="1" vertex="1">
          <mxGeometry x="30" y="1020" width="260" height="130" as="geometry" />
        </mxCell>
        <mxCell id="YZIkhoDz0om83u3jAHZu-1" value="&lt;font size=&quot;1&quot;&gt;Signal input&lt;/font&gt;" style="rounded=1;whiteSpace=wrap;html=1;" parent="YZIkhoDz0om83u3jAHZu-18" vertex="1">
          <mxGeometry x="10" y="30" width="70" height="40" as="geometry" />
        </mxCell>
        <mxCell id="YZIkhoDz0om83u3jAHZu-2" value="Function" style="rounded=0;whiteSpace=wrap;html=1;" parent="YZIkhoDz0om83u3jAHZu-18" vertex="1">
          <mxGeometry x="90" y="30" width="70" height="40" as="geometry" />
        </mxCell>
        <mxCell id="YZIkhoDz0om83u3jAHZu-3" value="Parameter" style="shape=process;whiteSpace=wrap;html=1;backgroundOutline=1;" parent="YZIkhoDz0om83u3jAHZu-18" vertex="1">
          <mxGeometry x="10" y="80" width="70" height="40" as="geometry" />
        </mxCell>
        <mxCell id="YZIkhoDz0om83u3jAHZu-4" value="Junction" style="shape=or;whiteSpace=wrap;html=1;" parent="YZIkhoDz0om83u3jAHZu-18" vertex="1">
          <mxGeometry x="90" y="80" width="50" height="40" as="geometry" />
        </mxCell>
        <mxCell id="WWWGr8wKS7NOQKFkhAS5-44" value="&lt;font style=&quot;font-size: 12px&quot;&gt;note&lt;br&gt;&lt;/font&gt;" style="shape=note;whiteSpace=wrap;html=1;backgroundOutline=1;darkOpacity=0.05;fontSize=12;dashed=1;size=16;fillColor=#FFFFFF;" parent="YZIkhoDz0om83u3jAHZu-18" vertex="1">
          <mxGeometry x="170" y="30" width="60" height="40" as="geometry" />
        </mxCell>
        <mxCell id="YZIkhoDz0om83u3jAHZu-19" value="Line color codes" style="swimlane;fillColor=#FFF4C3;" parent="1" vertex="1">
          <mxGeometry x="570" y="1020" width="130" height="130" as="geometry" />
        </mxCell>
        <mxCell id="YZIkhoDz0om83u3jAHZu-25" value="" style="endArrow=classic;html=1;strokeWidth=3;strokeColor=#FF9933;" parent="YZIkhoDz0om83u3jAHZu-19" edge="1">
          <mxGeometry relative="1" as="geometry">
            <mxPoint x="10" y="60" as="sourcePoint" />
            <mxPoint x="120" y="60" as="targetPoint" />
            <Array as="points" />
          </mxGeometry>
        </mxCell>
        <mxCell id="YZIkhoDz0om83u3jAHZu-26" value="Roll/Pitch/Yaw" style="edgeLabel;resizable=0;html=1;align=center;verticalAlign=middle;" parent="YZIkhoDz0om83u3jAHZu-25" connectable="0" vertex="1">
          <mxGeometry relative="1" as="geometry" />
        </mxCell>
        <mxCell id="YZIkhoDz0om83u3jAHZu-29" value="" style="endArrow=classic;html=1;strokeWidth=3;strokeColor=#FF6666;" parent="YZIkhoDz0om83u3jAHZu-19" edge="1">
          <mxGeometry relative="1" as="geometry">
            <mxPoint x="10" y="80" as="sourcePoint" />
            <mxPoint x="120" y="80" as="targetPoint" />
            <Array as="points" />
          </mxGeometry>
        </mxCell>
        <mxCell id="YZIkhoDz0om83u3jAHZu-30" value="Yaw" style="edgeLabel;resizable=0;html=1;align=center;verticalAlign=middle;" parent="YZIkhoDz0om83u3jAHZu-29" connectable="0" vertex="1">
          <mxGeometry relative="1" as="geometry" />
        </mxCell>
        <mxCell id="YZIkhoDz0om83u3jAHZu-31" value="dd" style="endArrow=classic;html=1;strokeWidth=3;strokeColor=#A680B8;" parent="YZIkhoDz0om83u3jAHZu-19" edge="1">
          <mxGeometry relative="1" as="geometry">
            <mxPoint x="10" y="100" as="sourcePoint" />
            <mxPoint x="120" y="100" as="targetPoint" />
            <Array as="points" />
          </mxGeometry>
        </mxCell>
        <mxCell id="YZIkhoDz0om83u3jAHZu-32" value="R/P" style="edgeLabel;resizable=0;html=1;align=center;verticalAlign=middle;" parent="YZIkhoDz0om83u3jAHZu-31" connectable="0" vertex="1">
          <mxGeometry relative="1" as="geometry" />
        </mxCell>
        <mxCell id="YZIkhoDz0om83u3jAHZu-36" value="dd" style="endArrow=classic;html=1;strokeWidth=3;" parent="YZIkhoDz0om83u3jAHZu-19" edge="1">
          <mxGeometry relative="1" as="geometry">
            <mxPoint x="10" y="120" as="sourcePoint" />
            <mxPoint x="120" y="120" as="targetPoint" />
            <Array as="points" />
          </mxGeometry>
        </mxCell>
        <mxCell id="YZIkhoDz0om83u3jAHZu-37" value="Signal" style="edgeLabel;resizable=0;html=1;align=center;verticalAlign=middle;" parent="YZIkhoDz0om83u3jAHZu-36" connectable="0" vertex="1">
          <mxGeometry relative="1" as="geometry" />
        </mxCell>
        <mxCell id="YZIkhoDz0om83u3jAHZu-38" value="" style="endArrow=classic;html=1;strokeWidth=3;strokeColor=#7EA6E0;" parent="YZIkhoDz0om83u3jAHZu-19" edge="1">
          <mxGeometry relative="1" as="geometry">
            <mxPoint x="10" y="40" as="sourcePoint" />
            <mxPoint x="120" y="40" as="targetPoint" />
            <Array as="points" />
          </mxGeometry>
        </mxCell>
        <mxCell id="YZIkhoDz0om83u3jAHZu-39" value="Throttle" style="edgeLabel;resizable=0;html=1;align=center;verticalAlign=middle;" parent="YZIkhoDz0om83u3jAHZu-38" connectable="0" vertex="1">
          <mxGeometry relative="1" as="geometry" />
        </mxCell>
        <mxCell id="YZIkhoDz0om83u3jAHZu-44" style="edgeStyle=orthogonalEdgeStyle;rounded=0;orthogonalLoop=1;jettySize=auto;html=1;entryX=0;entryY=0.25;entryDx=0;entryDy=0;entryPerimeter=0;strokeWidth=2;fontSize=12;endFill=0;" parent="1" source="YZIkhoDz0om83u3jAHZu-41" target="w2lD-hBrVrexgJdN9BYj-7" edge="1">
          <mxGeometry relative="1" as="geometry">
            <Array as="points">
              <mxPoint x="1130" y="440" />
              <mxPoint x="1130" y="468" />
            </Array>
          </mxGeometry>
        </mxCell>
        <mxCell id="WWWGr8wKS7NOQKFkhAS5-2" style="edgeStyle=orthogonalEdgeStyle;rounded=0;orthogonalLoop=1;jettySize=auto;html=1;strokeWidth=2;fontSize=12;endFill=0;" parent="1" source="YZIkhoDz0om83u3jAHZu-42" target="WWWGr8wKS7NOQKFkhAS5-1" edge="1">
          <mxGeometry relative="1" as="geometry" />
        </mxCell>
        <mxCell id="WWWGr8wKS7NOQKFkhAS5-3" style="edgeStyle=orthogonalEdgeStyle;rounded=0;orthogonalLoop=1;jettySize=auto;html=1;entryX=0;entryY=0.5;entryDx=0;entryDy=0;entryPerimeter=0;strokeWidth=2;exitX=1;exitY=0.5;exitDx=0;exitDy=0;jumpStyle=arc;" parent="1" source="WWWGr8wKS7NOQKFkhAS5-1" target="w2lD-hBrVrexgJdN9BYj-7" edge="1">
          <mxGeometry relative="1" as="geometry">
            <Array as="points">
              <mxPoint x="1300" y="628" />
              <mxPoint x="1300" y="488" />
            </Array>
          </mxGeometry>
        </mxCell>
        <mxCell id="WWWGr8wKS7NOQKFkhAS5-1" value="&lt;div class=&quot;page&quot; title=&quot;Page 1&quot;&gt;&lt;div class=&quot;section&quot;&gt;&lt;div class=&quot;layoutArea&quot;&gt;&lt;div class=&quot;column&quot;&gt;&lt;div class=&quot;page&quot; title=&quot;Page 1&quot;&gt;&lt;div class=&quot;section&quot;&gt;&lt;div class=&quot;layoutArea&quot; style=&quot;font-size: 10px&quot;&gt;&lt;div class=&quot;column&quot; style=&quot;line-height: 50%&quot;&gt;&lt;p&gt;iterm_relax (3.4)&lt;/p&gt;&lt;p&gt;iterm_relax_type&lt;/p&gt;&lt;p&gt;iterm_relax_cutoff&lt;/p&gt;&lt;p&gt;&lt;br&gt;&lt;/p&gt;&lt;p&gt;&lt;b&gt;anti-gravity&lt;/b&gt;&lt;/p&gt;&lt;/div&gt;&lt;/div&gt;&lt;/div&gt;&lt;/div&gt;&lt;/div&gt;&lt;/div&gt;&lt;/div&gt;&lt;/div&gt;" style="shape=process;whiteSpace=wrap;html=1;backgroundOutline=1;strokeWidth=1;size=0.07692307692307693;fillColor=#FFFFFF;" parent="1" vertex="1">
          <mxGeometry x="1160" y="591.25" width="111.22" height="73.75" as="geometry" />
        </mxCell>
        <mxCell id="WWWGr8wKS7NOQKFkhAS5-8" style="edgeStyle=orthogonalEdgeStyle;rounded=0;orthogonalLoop=1;jettySize=auto;html=1;entryX=0;entryY=0.25;entryDx=0;entryDy=0;strokeWidth=2;fontSize=12;endFill=0;strokeColor=#FF9933;exitX=1;exitY=0.25;exitDx=0;exitDy=0;" parent="1" source="WWWGr8wKS7NOQKFkhAS5-6" target="YZIkhoDz0om83u3jAHZu-41" edge="1">
          <mxGeometry relative="1" as="geometry">
            <Array as="points">
              <mxPoint x="780" y="603" />
              <mxPoint x="780" y="425" />
            </Array>
            <mxPoint x="760" y="600" as="sourcePoint" />
          </mxGeometry>
        </mxCell>
        <mxCell id="g_LAPnDDZJ9LDUpSgcGy-7" style="edgeStyle=orthogonalEdgeStyle;rounded=0;orthogonalLoop=1;jettySize=auto;html=1;entryX=0.5;entryY=1;entryDx=0;entryDy=0;strokeWidth=2;" parent="1" source="WWWGr8wKS7NOQKFkhAS5-6" target="g_LAPnDDZJ9LDUpSgcGy-3" edge="1">
          <mxGeometry relative="1" as="geometry" />
        </mxCell>
        <mxCell id="WWWGr8wKS7NOQKFkhAS5-6" value="Setpoint&lt;br&gt;ERROR" style="whiteSpace=wrap;html=1;fillColor=#FFFFFF;fontSize=12;" parent="1" vertex="1">
          <mxGeometry x="680" y="587.5" width="70" height="60" as="geometry" />
        </mxCell>
        <mxCell id="WWWGr8wKS7NOQKFkhAS5-10" style="edgeStyle=orthogonalEdgeStyle;rounded=0;orthogonalLoop=1;jettySize=auto;html=1;strokeWidth=2;fontSize=12;endFill=0;" parent="1" source="WWWGr8wKS7NOQKFkhAS5-9" target="WWWGr8wKS7NOQKFkhAS5-6" edge="1">
          <mxGeometry relative="1" as="geometry" />
        </mxCell>
        <mxCell id="WWWGr8wKS7NOQKFkhAS5-9" value="&lt;font style=&quot;font-size: 30px&quot;&gt;-&lt;/font&gt;" style="shape=or;whiteSpace=wrap;html=1;" parent="1" vertex="1">
          <mxGeometry x="590" y="577.5" width="30" height="80" as="geometry" />
        </mxCell>
        <mxCell id="WWWGr8wKS7NOQKFkhAS5-12" style="edgeStyle=orthogonalEdgeStyle;rounded=0;orthogonalLoop=1;jettySize=auto;html=1;strokeWidth=2;fontSize=12;endFill=0;" parent="1" source="WWWGr8wKS7NOQKFkhAS5-11" target="YZIkhoDz0om83u3jAHZu-43" edge="1">
          <mxGeometry relative="1" as="geometry" />
        </mxCell>
        <mxCell id="WWWGr8wKS7NOQKFkhAS5-11" value="&lt;div class=&quot;page&quot; title=&quot;Page 1&quot;&gt;&lt;div class=&quot;section&quot;&gt;&lt;div class=&quot;layoutArea&quot;&gt;&lt;div class=&quot;column&quot;&gt;&lt;div class=&quot;page&quot; title=&quot;Page 1&quot;&gt;&lt;div class=&quot;section&quot;&gt;&lt;div class=&quot;layoutArea&quot; style=&quot;font-size: 10px&quot;&gt;&lt;div class=&quot;column&quot; style=&quot;line-height: 50%&quot;&gt;&lt;p&gt;Dmin / Dmax (4.0)&lt;/p&gt;&lt;p&gt;d_min_advance&lt;/p&gt;&lt;p&gt;d_min_gain&lt;/p&gt;&lt;/div&gt;&lt;/div&gt;&lt;/div&gt;&lt;/div&gt;&lt;/div&gt;&lt;/div&gt;&lt;/div&gt;&lt;/div&gt;" style="shape=process;whiteSpace=wrap;html=1;backgroundOutline=1;strokeWidth=1;size=0.07692307692307693;fillColor=#FFFFFF;strokeColor=#FF99CC;" parent="1" vertex="1">
          <mxGeometry x="864.39" y="880" width="111.22" height="60" as="geometry" />
        </mxCell>
        <mxCell id="WWWGr8wKS7NOQKFkhAS5-14" style="edgeStyle=orthogonalEdgeStyle;rounded=0;orthogonalLoop=1;jettySize=auto;html=1;strokeWidth=2;fontSize=12;endFill=0;entryX=0;entryY=0.25;entryDx=0;entryDy=0;" parent="1" source="WWWGr8wKS7NOQKFkhAS5-13" target="YZIkhoDz0om83u3jAHZu-43" edge="1">
          <mxGeometry relative="1" as="geometry">
            <Array as="points">
              <mxPoint x="810" y="753" />
              <mxPoint x="810" y="775" />
            </Array>
          </mxGeometry>
        </mxCell>
        <mxCell id="WWWGr8wKS7NOQKFkhAS5-13" value="DTerm filters" style="whiteSpace=wrap;html=1;fillColor=#FFFFFF;fontSize=12;strokeColor=#FF99CC;strokeWidth=3;" parent="1" vertex="1">
          <mxGeometry x="580" y="722.5" width="110" height="60" as="geometry" />
        </mxCell>
        <mxCell id="WWWGr8wKS7NOQKFkhAS5-16" style="edgeStyle=orthogonalEdgeStyle;rounded=0;orthogonalLoop=1;jettySize=auto;html=1;entryX=0;entryY=0.5;entryDx=0;entryDy=0;strokeWidth=2;fontSize=12;endFill=0;" parent="1" source="WWWGr8wKS7NOQKFkhAS5-15" target="WWWGr8wKS7NOQKFkhAS5-13" edge="1">
          <mxGeometry relative="1" as="geometry" />
        </mxCell>
        <mxCell id="WWWGr8wKS7NOQKFkhAS5-15" value="d/dt" style="whiteSpace=wrap;html=1;aspect=fixed;fillColor=#FFFFFF;fontSize=12;" parent="1" vertex="1">
          <mxGeometry x="480" y="732.5" width="40" height="40" as="geometry" />
        </mxCell>
        <mxCell id="WWWGr8wKS7NOQKFkhAS5-19" style="edgeStyle=orthogonalEdgeStyle;rounded=0;orthogonalLoop=1;jettySize=auto;html=1;entryX=0;entryY=0.5;entryDx=0;entryDy=0;strokeWidth=2;fontSize=12;exitX=1;exitY=0.75;exitDx=0;exitDy=0;strokeColor=#FF9933;" parent="1" source="WWWGr8wKS7NOQKFkhAS5-18" target="WWWGr8wKS7NOQKFkhAS5-15" edge="1">
          <mxGeometry relative="1" as="geometry">
            <Array as="points">
              <mxPoint x="450" y="640" />
              <mxPoint x="450" y="753" />
              <mxPoint x="470" y="753" />
            </Array>
          </mxGeometry>
        </mxCell>
        <mxCell id="WWWGr8wKS7NOQKFkhAS5-20" style="edgeStyle=orthogonalEdgeStyle;rounded=0;orthogonalLoop=1;jettySize=auto;html=1;entryX=0;entryY=0.5;entryDx=0;entryDy=0;entryPerimeter=0;strokeWidth=2;fontSize=12;exitX=1;exitY=0.25;exitDx=0;exitDy=0;strokeColor=#FF9933;" parent="1" source="WWWGr8wKS7NOQKFkhAS5-18" target="WWWGr8wKS7NOQKFkhAS5-9" edge="1">
          <mxGeometry relative="1" as="geometry" />
        </mxCell>
        <mxCell id="hB5kVmbyOagr3X4HZB57-4" style="edgeStyle=orthogonalEdgeStyle;rounded=0;orthogonalLoop=1;jettySize=auto;html=1;strokeWidth=2;strokeColor=#FF9933;jumpStyle=arc;entryX=0;entryY=0.5;entryDx=0;entryDy=0;" parent="1" source="WWWGr8wKS7NOQKFkhAS5-18" target="g_LAPnDDZJ9LDUpSgcGy-49" edge="1">
          <mxGeometry relative="1" as="geometry">
            <mxPoint x="1080" y="503" as="targetPoint" />
            <Array as="points">
              <mxPoint x="490" y="623" />
              <mxPoint x="490" y="690" />
              <mxPoint x="810" y="690" />
              <mxPoint x="810" y="503" />
              <mxPoint x="1100" y="503" />
            </Array>
          </mxGeometry>
        </mxCell>
        <UserObject label="Gyro filters" treeRoot="1" id="WWWGr8wKS7NOQKFkhAS5-18">
          <mxCell style="whiteSpace=wrap;html=1;align=center;treeFolding=1;treeMoving=1;newEdgeStyle={&quot;edgeStyle&quot;:&quot;elbowEdgeStyle&quot;,&quot;startArrow&quot;:&quot;none&quot;,&quot;endArrow&quot;:&quot;none&quot;};rounded=0;rotation=0;strokeColor=#97D077;strokeWidth=3;" parent="1" vertex="1">
            <mxGeometry x="319.39" y="587.5" width="111.22" height="70" as="geometry" />
          </mxCell>
        </UserObject>
        <mxCell id="WWWGr8wKS7NOQKFkhAS5-21" value="&lt;font size=&quot;1&quot;&gt;Gyro&lt;/font&gt;" style="rounded=1;whiteSpace=wrap;html=1;fillColor=#97D077;" parent="1" vertex="1">
          <mxGeometry x="50" y="591.25" width="110" height="62.5" as="geometry" />
        </mxCell>
        <mxCell id="WWWGr8wKS7NOQKFkhAS5-26" style="edgeStyle=orthogonalEdgeStyle;rounded=0;orthogonalLoop=1;jettySize=auto;html=1;entryX=0.75;entryY=1;entryDx=0;entryDy=0;strokeColor=#97D077;strokeWidth=2;fontSize=12;curved=1;dashed=1;endArrow=none;endFill=0;exitX=0;exitY=0;exitDx=150;exitDy=55;exitPerimeter=0;" parent="1" source="WWWGr8wKS7NOQKFkhAS5-24" target="WWWGr8wKS7NOQKFkhAS5-18" edge="1">
          <mxGeometry relative="1" as="geometry" />
        </mxCell>
        <mxCell id="WWWGr8wKS7NOQKFkhAS5-24" value="&lt;font style=&quot;font-size: 12px&quot;&gt;RPM-Notch filters&lt;br&gt;Dynamic Notch filter/s&lt;br&gt;Static Gyro Notches 1+2&lt;br&gt;Dynamic Gyro Lowpass&lt;br&gt;Static Gyro Lowpass&lt;br&gt;&lt;/font&gt;" style="shape=note;whiteSpace=wrap;html=1;backgroundOutline=1;darkOpacity=0.05;fontSize=12;dashed=1;fillColor=#FFFFFF;size=20;strokeColor=#97D077;" parent="1" vertex="1">
          <mxGeometry x="240" y="675" width="150" height="90" as="geometry" />
        </mxCell>
        <mxCell id="WWWGr8wKS7NOQKFkhAS5-33" style="edgeStyle=orthogonalEdgeStyle;rounded=0;orthogonalLoop=1;jettySize=auto;html=1;endArrow=classic;endFill=0;strokeWidth=4;fontSize=12;exitX=1;exitY=0.5;exitDx=0;exitDy=0;entryX=0;entryY=0.25;entryDx=0;entryDy=0;fillColor=#fff2cc;strokeColor=#FFD966;" parent="1" source="B2t_GY5lvsCgVpnPcRMf-1" target="WWWGr8wKS7NOQKFkhAS5-18" edge="1">
          <mxGeometry relative="1" as="geometry">
            <mxPoint x="180" y="546" as="sourcePoint" />
            <mxPoint x="330" y="560" as="targetPoint" />
            <Array as="points">
              <mxPoint x="210" y="481" />
              <mxPoint x="210" y="605" />
            </Array>
          </mxGeometry>
        </mxCell>
        <mxCell id="WWWGr8wKS7NOQKFkhAS5-36" value="M1-M4" style="edgeLabel;html=1;align=center;verticalAlign=middle;resizable=0;points=[];fontSize=12;" parent="WWWGr8wKS7NOQKFkhAS5-33" vertex="1" connectable="0">
          <mxGeometry x="0.4596" y="1" relative="1" as="geometry">
            <mxPoint x="-38.3" y="-71.5" as="offset" />
          </mxGeometry>
        </mxCell>
        <mxCell id="WWWGr8wKS7NOQKFkhAS5-39" style="edgeStyle=orthogonalEdgeStyle;rounded=0;orthogonalLoop=1;jettySize=auto;html=1;entryX=1;entryY=0.75;entryDx=0;entryDy=0;endArrow=none;endFill=0;strokeWidth=2;fontSize=12;curved=1;dashed=1;strokeColor=#FF99CC;" parent="1" source="WWWGr8wKS7NOQKFkhAS5-38" target="WWWGr8wKS7NOQKFkhAS5-13" edge="1">
          <mxGeometry relative="1" as="geometry" />
        </mxCell>
        <mxCell id="WWWGr8wKS7NOQKFkhAS5-38" value="&lt;font style=&quot;font-size: 12px&quot;&gt;Dynamic D lowpass&lt;br&gt;Static lowpass 1+2&lt;br&gt;Static D notch&lt;br&gt;&lt;/font&gt;" style="shape=note;whiteSpace=wrap;html=1;backgroundOutline=1;darkOpacity=0.05;fontSize=12;dashed=1;size=17;strokeColor=#FF99CC;" parent="1" vertex="1">
          <mxGeometry x="640" y="820" width="150" height="60" as="geometry" />
        </mxCell>
        <mxCell id="WWWGr8wKS7NOQKFkhAS5-40" value="&lt;div class=&quot;page&quot; title=&quot;Page 1&quot;&gt;&lt;div class=&quot;section&quot;&gt;&lt;div class=&quot;layoutArea&quot;&gt;&lt;div class=&quot;column&quot;&gt;&lt;div class=&quot;page&quot; title=&quot;Page 1&quot;&gt;&lt;div class=&quot;section&quot;&gt;&lt;div class=&quot;layoutArea&quot; style=&quot;font-size: 10px&quot;&gt;&lt;div class=&quot;column&quot; style=&quot;line-height: 50%&quot;&gt;&lt;p&gt;dyn_lpf_dterm_curve_expo&lt;/p&gt;&lt;/div&gt;&lt;/div&gt;&lt;/div&gt;&lt;/div&gt;&lt;/div&gt;&lt;/div&gt;&lt;/div&gt;&lt;/div&gt;" style="shape=process;whiteSpace=wrap;html=1;backgroundOutline=1;strokeWidth=1;size=0.07692307692307693;fillColor=#FFFFFF;strokeColor=#FF99CC;" parent="1" vertex="1">
          <mxGeometry x="270" y="780" width="160" height="60" as="geometry" />
        </mxCell>
        <mxCell id="WWWGr8wKS7NOQKFkhAS5-46" value="&lt;font size=&quot;1&quot;&gt;RC Command&lt;/font&gt;" style="rounded=1;whiteSpace=wrap;html=1;fillColor=#CDA2BE;" parent="1" vertex="1">
          <mxGeometry x="50" y="310" width="110" height="62.5" as="geometry" />
        </mxCell>
        <mxCell id="WWWGr8wKS7NOQKFkhAS5-54" style="edgeStyle=orthogonalEdgeStyle;rounded=0;orthogonalLoop=1;jettySize=auto;html=1;entryX=0.5;entryY=0;entryDx=0;entryDy=0;endArrow=classic;endFill=0;strokeWidth=3;fontSize=12;strokeColor=#FF9933;" parent="1" source="WWWGr8wKS7NOQKFkhAS5-47" target="WWWGr8wKS7NOQKFkhAS5-51" edge="1">
          <mxGeometry relative="1" as="geometry">
            <Array as="points">
              <mxPoint x="315" y="280" />
              <mxPoint x="640" y="280" />
            </Array>
          </mxGeometry>
        </mxCell>
        <mxCell id="WWWGr8wKS7NOQKFkhAS5-47" value="Rates &amp;amp; Expo" style="whiteSpace=wrap;html=1;fontSize=12;strokeWidth=2;strokeColor=#CDA2BE;" parent="1" vertex="1">
          <mxGeometry x="270" y="260" width="110" height="60" as="geometry" />
        </mxCell>
        <mxCell id="WWWGr8wKS7NOQKFkhAS5-49" style="edgeStyle=orthogonalEdgeStyle;rounded=0;orthogonalLoop=1;jettySize=auto;html=1;endArrow=classic;endFill=0;strokeWidth=4;fontSize=12;exitX=1;exitY=0.5;exitDx=0;exitDy=0;fillColor=#e1d5e7;entryX=0;entryY=0.5;entryDx=0;entryDy=0;strokeColor=#FF9933;" parent="1" source="WWWGr8wKS7NOQKFkhAS5-46" target="WWWGr8wKS7NOQKFkhAS5-47" edge="1">
          <mxGeometry relative="1" as="geometry">
            <mxPoint x="170" y="491.25" as="sourcePoint" />
            <mxPoint x="250" y="341" as="targetPoint" />
            <Array as="points" />
          </mxGeometry>
        </mxCell>
        <mxCell id="WWWGr8wKS7NOQKFkhAS5-50" value="R/P/Y" style="edgeLabel;html=1;align=center;verticalAlign=middle;resizable=0;points=[];fontSize=12;" parent="WWWGr8wKS7NOQKFkhAS5-49" vertex="1" connectable="0">
          <mxGeometry x="0.4596" y="1" relative="1" as="geometry">
            <mxPoint x="-16.17" y="21" as="offset" />
          </mxGeometry>
        </mxCell>
        <mxCell id="g_LAPnDDZJ9LDUpSgcGy-66" style="edgeStyle=orthogonalEdgeStyle;rounded=0;jumpStyle=arc;orthogonalLoop=1;jettySize=auto;html=1;strokeColor=#FF9933;strokeWidth=2;" parent="1" source="WWWGr8wKS7NOQKFkhAS5-51" target="WWWGr8wKS7NOQKFkhAS5-55" edge="1">
          <mxGeometry relative="1" as="geometry" />
        </mxCell>
        <mxCell id="WWWGr8wKS7NOQKFkhAS5-51" value="&lt;div class=&quot;page&quot; title=&quot;Page 1&quot;&gt;&lt;div class=&quot;section&quot;&gt;&lt;div class=&quot;layoutArea&quot;&gt;&lt;div class=&quot;column&quot;&gt;&lt;div class=&quot;page&quot; title=&quot;Page 1&quot;&gt;&lt;div class=&quot;section&quot;&gt;&lt;div class=&quot;layoutArea&quot; style=&quot;font-size: 10px&quot;&gt;&lt;div class=&quot;column&quot; style=&quot;line-height: 50%&quot;&gt;&lt;p&gt;rc_interpolation&lt;/p&gt;&lt;p&gt;rc_interp&lt;/p&gt;&lt;p&gt;rc_inter_ch&lt;/p&gt;&lt;p&gt;rc_inter_int&lt;/p&gt;&lt;/div&gt;&lt;/div&gt;&lt;/div&gt;&lt;/div&gt;&lt;/div&gt;&lt;/div&gt;&lt;/div&gt;&lt;/div&gt;" style="shape=process;whiteSpace=wrap;html=1;backgroundOutline=1;strokeWidth=1;size=0.07692307692307693;fillColor=#FFFFFF;strokeColor=#CDA2BE;" parent="1" vertex="1">
          <mxGeometry x="245" y="360" width="160" height="60" as="geometry" />
        </mxCell>
        <mxCell id="WWWGr8wKS7NOQKFkhAS5-58" style="edgeStyle=orthogonalEdgeStyle;rounded=0;orthogonalLoop=1;jettySize=auto;html=1;endArrow=classic;endFill=0;strokeWidth=3;fontSize=12;strokeColor=#FF9933;" parent="1" source="WWWGr8wKS7NOQKFkhAS5-55" target="WWWGr8wKS7NOQKFkhAS5-57" edge="1">
          <mxGeometry relative="1" as="geometry" />
        </mxCell>
        <mxCell id="g_LAPnDDZJ9LDUpSgcGy-65" style="edgeStyle=orthogonalEdgeStyle;rounded=0;jumpStyle=arc;orthogonalLoop=1;jettySize=auto;html=1;entryX=0;entryY=0.5;entryDx=0;entryDy=0;strokeWidth=3;exitX=1;exitY=0.25;exitDx=0;exitDy=0;strokeColor=#FF9933;" parent="1" source="WWWGr8wKS7NOQKFkhAS5-55" target="g_LAPnDDZJ9LDUpSgcGy-28" edge="1">
          <mxGeometry relative="1" as="geometry">
            <Array as="points">
              <mxPoint x="350" y="505" />
              <mxPoint x="350" y="460" />
              <mxPoint x="760" y="460" />
              <mxPoint x="760" y="330" />
            </Array>
          </mxGeometry>
        </mxCell>
        <mxCell id="WWWGr8wKS7NOQKFkhAS5-55" value="SetPoint" style="whiteSpace=wrap;html=1;fillColor=#FFFFFF;fontSize=12;strokeColor=#CDA2BE;" parent="1" vertex="1">
          <mxGeometry x="260" y="490" width="80" height="60" as="geometry" />
        </mxCell>
        <mxCell id="WWWGr8wKS7NOQKFkhAS5-59" style="edgeStyle=orthogonalEdgeStyle;rounded=0;orthogonalLoop=1;jettySize=auto;html=1;entryX=0;entryY=0.25;entryDx=0;entryDy=0;entryPerimeter=0;endArrow=classic;endFill=0;strokeColor=#CDA2BE;strokeWidth=2;fontSize=12;exitX=0.5;exitY=1;exitDx=0;exitDy=0;" parent="1" source="WWWGr8wKS7NOQKFkhAS5-57" target="WWWGr8wKS7NOQKFkhAS5-9" edge="1">
          <mxGeometry relative="1" as="geometry">
            <Array as="points">
              <mxPoint x="415" y="570" />
              <mxPoint x="530" y="570" />
              <mxPoint x="530" y="598" />
            </Array>
          </mxGeometry>
        </mxCell>
        <mxCell id="WWWGr8wKS7NOQKFkhAS5-57" value="Setpoint&lt;br&gt;Smoothing" style="whiteSpace=wrap;html=1;fillColor=#FFFFFF;fontSize=12;strokeColor=#CDA2BE;" parent="1" vertex="1">
          <mxGeometry x="380" y="490" width="70" height="60" as="geometry" />
        </mxCell>
        <mxCell id="WWWGr8wKS7NOQKFkhAS5-65" style="edgeStyle=orthogonalEdgeStyle;rounded=0;orthogonalLoop=1;jettySize=auto;html=1;entryX=0.5;entryY=1;entryDx=0;entryDy=0;endArrow=classic;endFill=0;strokeWidth=2;fontSize=12;jumpStyle=arc;exitX=0.5;exitY=0;exitDx=0;exitDy=0;strokeColor=#FF9933;" parent="1" source="WWWGr8wKS7NOQKFkhAS5-61" target="WWWGr8wKS7NOQKFkhAS5-64" edge="1">
          <mxGeometry relative="1" as="geometry">
            <Array as="points">
              <mxPoint x="520" y="240" />
              <mxPoint x="295" y="240" />
            </Array>
          </mxGeometry>
        </mxCell>
        <mxCell id="WWWGr8wKS7NOQKFkhAS5-61" value="&lt;div class=&quot;page&quot; title=&quot;Page 1&quot;&gt;&lt;div class=&quot;section&quot;&gt;&lt;div class=&quot;layoutArea&quot;&gt;&lt;div class=&quot;column&quot;&gt;&lt;div class=&quot;page&quot; title=&quot;Page 1&quot;&gt;&lt;div class=&quot;section&quot;&gt;&lt;div class=&quot;layoutArea&quot; style=&quot;font-size: 10px&quot;&gt;&lt;div class=&quot;column&quot; style=&quot;line-height: 50%&quot;&gt;&lt;p&gt;rc_smoothing_type(3.4)&lt;/p&gt;&lt;p&gt;rc_smoothing_auto_smoothness&lt;/p&gt;&lt;p&gt;rc_smoothing_input_Hz&lt;/p&gt;&lt;p&gt;rc_inter_ch&lt;/p&gt;&lt;/div&gt;&lt;/div&gt;&lt;/div&gt;&lt;/div&gt;&lt;/div&gt;&lt;/div&gt;&lt;/div&gt;&lt;/div&gt;" style="shape=process;whiteSpace=wrap;html=1;backgroundOutline=1;strokeWidth=1;size=0.07692307692307693;fillColor=#FFFFFF;strokeColor=#CDA2BE;" parent="1" vertex="1">
          <mxGeometry x="430" y="260" width="180" height="60" as="geometry" />
        </mxCell>
        <mxCell id="WWWGr8wKS7NOQKFkhAS5-63" value="&lt;font size=&quot;1&quot;&gt;Throttle&lt;/font&gt;" style="rounded=1;whiteSpace=wrap;html=1;fillColor=#A9C4EB;" parent="1" vertex="1">
          <mxGeometry x="50" y="162.5" width="110" height="60" as="geometry" />
        </mxCell>
        <mxCell id="WWWGr8wKS7NOQKFkhAS5-64" value="smoothing" style="whiteSpace=wrap;html=1;fontSize=12;fillColor=none;strokeWidth=3;strokeColor=#D4E1F5;" parent="1" vertex="1">
          <mxGeometry x="260" y="162.5" width="70" height="60" as="geometry" />
        </mxCell>
        <mxCell id="WWWGr8wKS7NOQKFkhAS5-66" value="PID at zero&amp;nbsp;&lt;br&gt;throttle (3.4)" style="whiteSpace=wrap;html=1;fontSize=12;fillColor=none;strokeColor=#D4E1F5;strokeWidth=3;" parent="1" vertex="1">
          <mxGeometry x="460" y="168.75" width="135" height="47.5" as="geometry" />
        </mxCell>
        <mxCell id="WWWGr8wKS7NOQKFkhAS5-68" value="&lt;div class=&quot;page&quot; title=&quot;Page 1&quot;&gt;&lt;div class=&quot;section&quot;&gt;&lt;div class=&quot;layoutArea&quot;&gt;&lt;div class=&quot;column&quot;&gt;&lt;div class=&quot;page&quot; title=&quot;Page 1&quot;&gt;&lt;div class=&quot;section&quot;&gt;&lt;div class=&quot;layoutArea&quot; style=&quot;font-size: 10px&quot;&gt;&lt;div class=&quot;column&quot; style=&quot;line-height: 50%&quot;&gt;&lt;p&gt;throttle_boost (3.4)&lt;/p&gt;&lt;p&gt;throttle_boost_cutoff&lt;/p&gt;&lt;/div&gt;&lt;/div&gt;&lt;/div&gt;&lt;/div&gt;&lt;/div&gt;&lt;/div&gt;&lt;/div&gt;&lt;/div&gt;" style="shape=process;whiteSpace=wrap;html=1;backgroundOutline=1;strokeWidth=3;size=0.07692307692307693;fillColor=none;strokeColor=#D4E1F5;" parent="1" vertex="1">
          <mxGeometry x="460" y="80" width="130" height="50" as="geometry" />
        </mxCell>
        <mxCell id="WWWGr8wKS7NOQKFkhAS5-71" value="Airmode" style="whiteSpace=wrap;html=1;fillColor=#FFFFFF;fontSize=12;" parent="1" vertex="1">
          <mxGeometry x="660" y="75" width="70" height="60" as="geometry" />
        </mxCell>
        <mxCell id="WWWGr8wKS7NOQKFkhAS5-75" style="edgeStyle=orthogonalEdgeStyle;rounded=0;orthogonalLoop=1;jettySize=auto;html=1;entryX=0.5;entryY=1;entryDx=0;entryDy=0;endArrow=classic;endFill=0;strokeWidth=2;fontSize=12;" parent="1" source="WWWGr8wKS7NOQKFkhAS5-74" target="WWWGr8wKS7NOQKFkhAS5-71" edge="1">
          <mxGeometry relative="1" as="geometry" />
        </mxCell>
        <mxCell id="WWWGr8wKS7NOQKFkhAS5-74" value="&lt;div class=&quot;page&quot; title=&quot;Page 1&quot;&gt;&lt;div class=&quot;section&quot;&gt;&lt;div class=&quot;layoutArea&quot;&gt;&lt;div class=&quot;column&quot;&gt;&lt;div class=&quot;page&quot; title=&quot;Page 1&quot;&gt;&lt;div class=&quot;section&quot;&gt;&lt;div class=&quot;layoutArea&quot; style=&quot;font-size: 10px&quot;&gt;&lt;div class=&quot;column&quot; style=&quot;line-height: 50%&quot;&gt;&lt;p&gt;airmode_start_throttle_percent&lt;/p&gt;&lt;p&gt;transient_throttle_limit(4.0)&lt;/p&gt;&lt;p&gt;(not used with dynamic idle)&lt;/p&gt;&lt;/div&gt;&lt;/div&gt;&lt;/div&gt;&lt;/div&gt;&lt;/div&gt;&lt;/div&gt;&lt;/div&gt;&lt;/div&gt;" style="shape=process;whiteSpace=wrap;html=1;backgroundOutline=1;strokeWidth=1;size=0.07692307692307693;fillColor=#FFFFFF;" parent="1" vertex="1">
          <mxGeometry x="742" y="140" width="170" height="50" as="geometry" />
        </mxCell>
        <mxCell id="WWWGr8wKS7NOQKFkhAS5-79" style="edgeStyle=orthogonalEdgeStyle;rounded=0;orthogonalLoop=1;jettySize=auto;html=1;entryX=0.5;entryY=1;entryDx=0;entryDy=0;endArrow=classic;endFill=0;strokeWidth=4;fontSize=12;fillColor=#fff2cc;strokeColor=#FFD966;" parent="1" source="WWWGr8wKS7NOQKFkhAS5-77" target="WWWGr8wKS7NOQKFkhAS5-78" edge="1">
          <mxGeometry relative="1" as="geometry" />
        </mxCell>
        <mxCell id="g_LAPnDDZJ9LDUpSgcGy-14" value="M1 - M4" style="edgeLabel;html=1;align=center;verticalAlign=middle;resizable=0;points=[];" parent="WWWGr8wKS7NOQKFkhAS5-79" vertex="1" connectable="0">
          <mxGeometry x="-0.1752" y="1" relative="1" as="geometry">
            <mxPoint as="offset" />
          </mxGeometry>
        </mxCell>
        <mxCell id="WWWGr8wKS7NOQKFkhAS5-77" value="&lt;font size=&quot;1&quot;&gt;ESC&lt;/font&gt;" style="rounded=1;whiteSpace=wrap;html=1;fillColor=#FFF2CC;" parent="1" vertex="1">
          <mxGeometry x="1315" y="930" width="110" height="62.5" as="geometry" />
        </mxCell>
        <mxCell id="WWWGr8wKS7NOQKFkhAS5-82" style="edgeStyle=orthogonalEdgeStyle;rounded=0;orthogonalLoop=1;jettySize=auto;html=1;entryX=0;entryY=0.5;entryDx=0;entryDy=0;endArrow=classic;endFill=0;strokeWidth=2;fontSize=12;exitX=0.5;exitY=0;exitDx=0;exitDy=0;" parent="1" source="WWWGr8wKS7NOQKFkhAS5-78" target="4UiRcspPQ9_xsY6W7M90-56" edge="1">
          <mxGeometry relative="1" as="geometry" />
        </mxCell>
        <mxCell id="WWWGr8wKS7NOQKFkhAS5-78" value="Dynamic idle (4.1)&lt;br&gt;&lt;font style=&quot;font-size: 9px&quot;&gt;will only work with RPM-Filter enabled&lt;/font&gt;" style="whiteSpace=wrap;html=1;fillColor=#FFFFFF;fontSize=12;" parent="1" vertex="1">
          <mxGeometry x="1330" y="780" width="80" height="100" as="geometry" />
        </mxCell>
        <mxCell id="WWWGr8wKS7NOQKFkhAS5-81" style="edgeStyle=orthogonalEdgeStyle;rounded=0;orthogonalLoop=1;jettySize=auto;html=1;entryX=0;entryY=0.5;entryDx=0;entryDy=0;endArrow=classic;endFill=0;strokeWidth=2;fontSize=12;" parent="1" source="WWWGr8wKS7NOQKFkhAS5-80" target="WWWGr8wKS7NOQKFkhAS5-78" edge="1">
          <mxGeometry relative="1" as="geometry" />
        </mxCell>
        <mxCell id="WWWGr8wKS7NOQKFkhAS5-80" value="&lt;div class=&quot;page&quot; title=&quot;Page 1&quot;&gt;&lt;div class=&quot;section&quot;&gt;&lt;div class=&quot;layoutArea&quot;&gt;&lt;div class=&quot;column&quot;&gt;&lt;div class=&quot;page&quot; title=&quot;Page 1&quot;&gt;&lt;div class=&quot;section&quot;&gt;&lt;div class=&quot;layoutArea&quot; style=&quot;font-size: 10px&quot;&gt;&lt;div class=&quot;column&quot; style=&quot;line-height: 50%&quot;&gt;&lt;p&gt;idle_min_rpm&lt;/p&gt;&lt;p&gt;idle_adjustment_speed&lt;/p&gt;&lt;p&gt;idle_p&lt;/p&gt;&lt;p&gt;idle_pid_limit&lt;/p&gt;&lt;p&gt;idle_max_increase&lt;/p&gt;&lt;/div&gt;&lt;/div&gt;&lt;/div&gt;&lt;/div&gt;&lt;/div&gt;&lt;/div&gt;&lt;/div&gt;&lt;/div&gt;" style="shape=process;whiteSpace=wrap;html=1;backgroundOutline=1;strokeWidth=1;size=0.07692307692307693;fillColor=#FFFFFF;" parent="1" vertex="1">
          <mxGeometry x="1170" y="791.25" width="130" height="77.5" as="geometry" />
        </mxCell>
        <mxCell id="WWWGr8wKS7NOQKFkhAS5-87" value="Gyro filters parameter" style="swimlane;fillColor=#B9E0A5;" parent="1" vertex="1">
          <mxGeometry x="710" y="1020" width="460" height="130" as="geometry" />
        </mxCell>
        <mxCell id="WWWGr8wKS7NOQKFkhAS5-102" value="&lt;font style=&quot;line-height: 100%&quot;&gt;&lt;b style=&quot;font-size: 10px&quot;&gt;&lt;u&gt;RPM Notch filters:&lt;/u&gt;&lt;/b&gt; &lt;i&gt;&lt;font style=&quot;font-size: 9px&quot;&gt;gyro_rpm_notch_harmonics, gyro_rpm_notch_q, gyro_rpm_notch_min&lt;/font&gt;&lt;/i&gt;&lt;br&gt;&lt;/font&gt;" style="text;html=1;align=left;verticalAlign=middle;resizable=0;points=[];autosize=1;fontSize=12;" parent="WWWGr8wKS7NOQKFkhAS5-87" vertex="1">
          <mxGeometry x="6" y="26" width="390" height="20" as="geometry" />
        </mxCell>
        <mxCell id="WWWGr8wKS7NOQKFkhAS5-104" value="&lt;font style=&quot;line-height: 100%&quot;&gt;&lt;b style=&quot;font-size: 10px&quot;&gt;&lt;u&gt;Dynamic Notch filters:&lt;/u&gt;&lt;/b&gt; &lt;i&gt;&lt;font style=&quot;font-size: 9px&quot;&gt;dyn_notch_min_hz, dyn_notch_max_hz, dyn_notch_width_percent, dyn_notch_q&lt;/font&gt;&lt;/i&gt;&lt;br&gt;&lt;/font&gt;" style="text;html=1;align=left;verticalAlign=middle;resizable=0;points=[];autosize=1;fontSize=12;" parent="WWWGr8wKS7NOQKFkhAS5-87" vertex="1">
          <mxGeometry x="6" y="46" width="450" height="20" as="geometry" />
        </mxCell>
        <mxCell id="WWWGr8wKS7NOQKFkhAS5-105" value="&lt;font style=&quot;line-height: 100%&quot;&gt;&lt;b style=&quot;font-size: 10px&quot;&gt;&lt;u&gt;Static Gyro Notches 1+2:&lt;/u&gt;&lt;/b&gt; &lt;i&gt;&lt;font style=&quot;font-size: 9px&quot;&gt;gyro_notch1_hz, gyro_notch1_cutoff, gyro_notch2_hz, gyro_notch2_cutoff&lt;/font&gt;&lt;/i&gt;&lt;br&gt;&lt;/font&gt;" style="text;html=1;align=left;verticalAlign=middle;resizable=0;points=[];autosize=1;fontSize=12;" parent="WWWGr8wKS7NOQKFkhAS5-87" vertex="1">
          <mxGeometry x="6" y="66" width="430" height="20" as="geometry" />
        </mxCell>
        <mxCell id="WWWGr8wKS7NOQKFkhAS5-106" value="&lt;font style=&quot;font-size: 9px ; line-height: 100%&quot;&gt;&lt;b&gt;&lt;u&gt;Dynamic Gyro LowPass :&lt;/u&gt;&lt;/b&gt; &lt;i&gt;gyro_lowpass_type, gyro_lowpass_hz, dyn_lpf_gyro_min_hz,&amp;nbsp;&lt;/i&gt;dyn_lpf_gyro_max_hz&lt;br&gt;&lt;/font&gt;" style="text;html=1;align=left;verticalAlign=middle;resizable=0;points=[];autosize=1;fontSize=12;" parent="WWWGr8wKS7NOQKFkhAS5-87" vertex="1">
          <mxGeometry x="6" y="86" width="460" height="20" as="geometry" />
        </mxCell>
        <mxCell id="g_LAPnDDZJ9LDUpSgcGy-15" value="&lt;font style=&quot;line-height: 100%&quot;&gt;&lt;b style=&quot;font-size: 10px&quot;&gt;&lt;u&gt;Static Gyro Lowpass:&lt;/u&gt;&lt;/b&gt;&lt;font style=&quot;font-size: 9px&quot;&gt;&amp;nbsp;dyn_lowpass2_type, gyro_lowpass2_hz&lt;/font&gt;&lt;br&gt;&lt;/font&gt;" style="text;html=1;align=left;verticalAlign=middle;resizable=0;points=[];autosize=1;fontSize=12;" parent="WWWGr8wKS7NOQKFkhAS5-87" vertex="1">
          <mxGeometry x="6" y="106" width="280" height="20" as="geometry" />
        </mxCell>
        <mxCell id="WWWGr8wKS7NOQKFkhAS5-107" value="Dterm filters parameters" style="swimlane;fillColor=#FF99CC;" parent="1" vertex="1">
          <mxGeometry x="1184" y="1020" width="446" height="130" as="geometry" />
        </mxCell>
        <mxCell id="WWWGr8wKS7NOQKFkhAS5-108" value="&lt;font style=&quot;line-height: 100%&quot;&gt;&lt;b style=&quot;font-size: 10px&quot;&gt;&lt;u&gt;Dynamic D lowpass:&lt;/u&gt;&lt;/b&gt; &lt;br&gt;&lt;i&gt;&lt;font style=&quot;font-size: 9px&quot;&gt;dterm_lowpass_type, dyn_lpf_dterm_min_hz, dyn_lpf_dterm_max_hz, dyn_lpf_dterm_curve_expo&lt;/font&gt;&lt;/i&gt;&lt;br&gt;&lt;/font&gt;" style="text;html=1;align=left;verticalAlign=middle;resizable=0;points=[];autosize=1;fontSize=12;" parent="WWWGr8wKS7NOQKFkhAS5-107" vertex="1">
          <mxGeometry x="10" y="35" width="410" height="30" as="geometry" />
        </mxCell>
        <mxCell id="g_LAPnDDZJ9LDUpSgcGy-16" value="&lt;font style=&quot;line-height: 100%&quot;&gt;&lt;b style=&quot;font-size: 10px&quot;&gt;&lt;u&gt;Static&amp;nbsp; D lowpass:&lt;/u&gt;&lt;/b&gt; &lt;br&gt;&lt;i&gt;&lt;font style=&quot;font-size: 9px&quot;&gt;dterm_lowpass2_type, dterm_lowpass2_hz&lt;/font&gt;&lt;/i&gt;&lt;br&gt;&lt;/font&gt;" style="text;html=1;align=left;verticalAlign=middle;resizable=0;points=[];autosize=1;fontSize=12;" parent="WWWGr8wKS7NOQKFkhAS5-107" vertex="1">
          <mxGeometry x="10" y="65" width="190" height="30" as="geometry" />
        </mxCell>
        <mxCell id="g_LAPnDDZJ9LDUpSgcGy-17" value="&lt;font style=&quot;line-height: 100%&quot;&gt;&lt;b style=&quot;font-size: 10px&quot;&gt;&lt;u&gt;Static&amp;nbsp; D notch:&lt;/u&gt;&lt;/b&gt; &lt;br&gt;&lt;i&gt;&lt;font style=&quot;font-size: 9px&quot;&gt;dterm_notch_hz, dterm_notch_cutoff&lt;/font&gt;&lt;/i&gt;&lt;br&gt;&lt;/font&gt;" style="text;html=1;align=left;verticalAlign=middle;resizable=0;points=[];autosize=1;fontSize=12;" parent="WWWGr8wKS7NOQKFkhAS5-107" vertex="1">
          <mxGeometry x="10" y="95" width="160" height="30" as="geometry" />
        </mxCell>
        <mxCell id="g_LAPnDDZJ9LDUpSgcGy-6" style="edgeStyle=orthogonalEdgeStyle;rounded=0;orthogonalLoop=1;jettySize=auto;html=1;strokeWidth=2;exitX=0;exitY=0.5;exitDx=0;exitDy=0;entryX=1;entryY=0.5;entryDx=0;entryDy=0;" parent="1" source="g_LAPnDDZJ9LDUpSgcGy-3" target="WWWGr8wKS7NOQKFkhAS5-57" edge="1">
          <mxGeometry relative="1" as="geometry">
            <mxPoint x="490" y="530" as="targetPoint" />
            <Array as="points">
              <mxPoint x="490" y="520" />
              <mxPoint x="490" y="520" />
            </Array>
          </mxGeometry>
        </mxCell>
        <mxCell id="g_LAPnDDZJ9LDUpSgcGy-3" value="Absolute&lt;br&gt;Control&lt;br&gt;(3.4)" style="whiteSpace=wrap;html=1;fillColor=#FFFFFF;fontSize=12;" parent="1" vertex="1">
          <mxGeometry x="680" y="490" width="70" height="60" as="geometry" />
        </mxCell>
        <mxCell id="g_LAPnDDZJ9LDUpSgcGy-22" value="&lt;div class=&quot;page&quot; title=&quot;Page 1&quot;&gt;&lt;div class=&quot;section&quot;&gt;&lt;div class=&quot;layoutArea&quot;&gt;&lt;div class=&quot;column&quot;&gt;&lt;div class=&quot;page&quot; title=&quot;Page 1&quot;&gt;&lt;div class=&quot;section&quot;&gt;&lt;div class=&quot;layoutArea&quot; style=&quot;font-size: 10px&quot;&gt;&lt;div class=&quot;column&quot; style=&quot;line-height: 50%&quot;&gt;&lt;p&gt;tpa_rate&lt;/p&gt;&lt;p&gt;tpa_breakpoint&lt;/p&gt;&lt;p&gt;tpa_mode (4.0)&lt;/p&gt;&lt;/div&gt;&lt;/div&gt;&lt;/div&gt;&lt;/div&gt;&lt;/div&gt;&lt;/div&gt;&lt;/div&gt;&lt;/div&gt;" style="shape=process;whiteSpace=wrap;html=1;backgroundOutline=1;strokeWidth=1;size=0.07692307692307693;fillColor=#FFFFFF;strokeColor=#A9C4EB;" parent="1" vertex="1">
          <mxGeometry x="270" y="868.75" width="160" height="60" as="geometry" />
        </mxCell>
        <mxCell id="g_LAPnDDZJ9LDUpSgcGy-34" style="edgeStyle=orthogonalEdgeStyle;rounded=0;jumpStyle=arc;orthogonalLoop=1;jettySize=auto;html=1;entryX=0;entryY=0.5;entryDx=0;entryDy=0;strokeWidth=2;strokeColor=#FF9933;" parent="1" source="g_LAPnDDZJ9LDUpSgcGy-26" target="g_LAPnDDZJ9LDUpSgcGy-29" edge="1">
          <mxGeometry relative="1" as="geometry" />
        </mxCell>
        <mxCell id="g_LAPnDDZJ9LDUpSgcGy-64" style="edgeStyle=orthogonalEdgeStyle;rounded=0;jumpStyle=arc;orthogonalLoop=1;jettySize=auto;html=1;entryX=1;entryY=0.5;entryDx=0;entryDy=0;strokeWidth=2;" parent="1" source="g_LAPnDDZJ9LDUpSgcGy-26" target="WWWGr8wKS7NOQKFkhAS5-51" edge="1">
          <mxGeometry relative="1" as="geometry">
            <Array as="points">
              <mxPoint x="740" y="240" />
              <mxPoint x="740" y="390" />
            </Array>
          </mxGeometry>
        </mxCell>
        <mxCell id="g_LAPnDDZJ9LDUpSgcGy-26" value="Feedforward" style="whiteSpace=wrap;html=1;fillColor=#FFFFFF;fontSize=12;" parent="1" vertex="1">
          <mxGeometry x="930" y="210" width="80" height="60" as="geometry" />
        </mxCell>
        <mxCell id="g_LAPnDDZJ9LDUpSgcGy-42" style="edgeStyle=orthogonalEdgeStyle;rounded=0;jumpStyle=arc;orthogonalLoop=1;jettySize=auto;html=1;strokeWidth=2;strokeColor=#FF9933;" parent="1" source="g_LAPnDDZJ9LDUpSgcGy-27" target="g_LAPnDDZJ9LDUpSgcGy-26" edge="1">
          <mxGeometry relative="1" as="geometry" />
        </mxCell>
        <mxCell id="g_LAPnDDZJ9LDUpSgcGy-27" value="&lt;div class=&quot;page&quot; title=&quot;Page 1&quot;&gt;&lt;div class=&quot;section&quot;&gt;&lt;div class=&quot;layoutArea&quot;&gt;&lt;div class=&quot;column&quot;&gt;&lt;div class=&quot;page&quot; title=&quot;Page 1&quot;&gt;&lt;div class=&quot;section&quot;&gt;&lt;div class=&quot;layoutArea&quot; style=&quot;font-size: 10px&quot;&gt;&lt;div class=&quot;column&quot; style=&quot;line-height: 50%&quot;&gt;&lt;p&gt;ff_boost (4.0)&lt;/p&gt;&lt;/div&gt;&lt;/div&gt;&lt;/div&gt;&lt;/div&gt;&lt;/div&gt;&lt;/div&gt;&lt;/div&gt;&lt;/div&gt;" style="shape=process;whiteSpace=wrap;html=1;backgroundOutline=1;strokeWidth=1;size=0.07692307692307693;fillColor=none;" parent="1" vertex="1">
          <mxGeometry x="930" y="320" width="80" height="40" as="geometry" />
        </mxCell>
        <mxCell id="g_LAPnDDZJ9LDUpSgcGy-37" style="edgeStyle=orthogonalEdgeStyle;rounded=0;jumpStyle=arc;orthogonalLoop=1;jettySize=auto;html=1;entryX=0;entryY=0.75;entryDx=0;entryDy=0;strokeWidth=2;exitX=1;exitY=0.25;exitDx=0;exitDy=0;strokeColor=#FF9933;" parent="1" source="g_LAPnDDZJ9LDUpSgcGy-28" target="g_LAPnDDZJ9LDUpSgcGy-26" edge="1">
          <mxGeometry relative="1" as="geometry">
            <Array as="points">
              <mxPoint x="840" y="320" />
              <mxPoint x="840" y="255" />
            </Array>
          </mxGeometry>
        </mxCell>
        <mxCell id="g_LAPnDDZJ9LDUpSgcGy-41" style="edgeStyle=orthogonalEdgeStyle;rounded=0;jumpStyle=arc;orthogonalLoop=1;jettySize=auto;html=1;entryX=0;entryY=0.5;entryDx=0;entryDy=0;strokeWidth=2;exitX=1;exitY=0.75;exitDx=0;exitDy=0;strokeColor=#FF9933;" parent="1" source="g_LAPnDDZJ9LDUpSgcGy-28" target="g_LAPnDDZJ9LDUpSgcGy-27" edge="1">
          <mxGeometry relative="1" as="geometry" />
        </mxCell>
        <mxCell id="g_LAPnDDZJ9LDUpSgcGy-28" value="d/dt" style="whiteSpace=wrap;html=1;aspect=fixed;fillColor=#FFFFFF;fontSize=12;" parent="1" vertex="1">
          <mxGeometry x="787" y="310" width="40" height="40" as="geometry" />
        </mxCell>
        <mxCell id="g_LAPnDDZJ9LDUpSgcGy-35" style="edgeStyle=orthogonalEdgeStyle;rounded=0;jumpStyle=arc;orthogonalLoop=1;jettySize=auto;html=1;entryX=-0.004;entryY=0.01;entryDx=0;entryDy=0;entryPerimeter=0;strokeWidth=2;strokeColor=#FF9933;" parent="1" source="g_LAPnDDZJ9LDUpSgcGy-29" target="w2lD-hBrVrexgJdN9BYj-7" edge="1">
          <mxGeometry relative="1" as="geometry">
            <Array as="points">
              <mxPoint x="1180" y="240" />
              <mxPoint x="1180" y="448" />
            </Array>
          </mxGeometry>
        </mxCell>
        <mxCell id="g_LAPnDDZJ9LDUpSgcGy-29" value="FF-Smoothing" style="whiteSpace=wrap;html=1;fillColor=#FFFFFF;fontSize=12;" parent="1" vertex="1">
          <mxGeometry x="1045.6100000000001" y="210" width="80" height="60" as="geometry" />
        </mxCell>
        <mxCell id="g_LAPnDDZJ9LDUpSgcGy-40" style="edgeStyle=orthogonalEdgeStyle;rounded=0;jumpStyle=arc;orthogonalLoop=1;jettySize=auto;html=1;entryX=0.5;entryY=0;entryDx=0;entryDy=0;strokeColor=#000000;strokeWidth=2;exitX=0.5;exitY=1;exitDx=0;exitDy=0;" parent="1" source="g_LAPnDDZJ9LDUpSgcGy-31" target="g_LAPnDDZJ9LDUpSgcGy-29" edge="1">
          <mxGeometry relative="1" as="geometry">
            <Array as="points">
              <mxPoint x="1104" y="180" />
              <mxPoint x="1086" y="180" />
            </Array>
          </mxGeometry>
        </mxCell>
        <mxCell id="g_LAPnDDZJ9LDUpSgcGy-31" value="&lt;div class=&quot;page&quot; title=&quot;Page 1&quot;&gt;&lt;div class=&quot;section&quot;&gt;&lt;div class=&quot;layoutArea&quot;&gt;&lt;div class=&quot;column&quot;&gt;&lt;div class=&quot;page&quot; title=&quot;Page 1&quot;&gt;&lt;div class=&quot;section&quot;&gt;&lt;div class=&quot;layoutArea&quot; style=&quot;font-size: 10px&quot;&gt;&lt;div class=&quot;column&quot; style=&quot;line-height: 50%&quot;&gt;&lt;p&gt;&lt;span&gt;rc_smoothing_auto_smoothness&lt;/span&gt;&lt;br&gt;&lt;/p&gt;&lt;p&gt;rc_smoothing_derivative_type&lt;/p&gt;&lt;p&gt;rc_smoothing_derivative_Hz&lt;/p&gt;&lt;/div&gt;&lt;/div&gt;&lt;/div&gt;&lt;/div&gt;&lt;/div&gt;&lt;/div&gt;&lt;/div&gt;&lt;/div&gt;" style="shape=process;whiteSpace=wrap;html=1;backgroundOutline=1;strokeWidth=1;size=0.07692307692307693;fillColor=#FFFFFF;strokeColor=#CDA2BE;" parent="1" vertex="1">
          <mxGeometry x="1014" y="120" width="180" height="50" as="geometry" />
        </mxCell>
        <mxCell id="hB5kVmbyOagr3X4HZB57-2" style="edgeStyle=orthogonalEdgeStyle;rounded=0;orthogonalLoop=1;jettySize=auto;html=1;entryX=0.5;entryY=1;entryDx=0;entryDy=0;strokeWidth=2;" parent="1" source="g_LAPnDDZJ9LDUpSgcGy-46" target="g_LAPnDDZJ9LDUpSgcGy-49" edge="1">
          <mxGeometry relative="1" as="geometry" />
        </mxCell>
        <mxCell id="g_LAPnDDZJ9LDUpSgcGy-46" value="&lt;div class=&quot;page&quot; title=&quot;Page 1&quot;&gt;&lt;div class=&quot;section&quot;&gt;&lt;div class=&quot;layoutArea&quot;&gt;&lt;div class=&quot;column&quot;&gt;&lt;div class=&quot;page&quot; title=&quot;Page 1&quot;&gt;&lt;div class=&quot;section&quot;&gt;&lt;div class=&quot;layoutArea&quot;&gt;&lt;div class=&quot;column&quot; style=&quot;line-height: 50%&quot;&gt;&lt;p&gt;&lt;span style=&quot;color: rgb(36 , 41 , 46) ; background-color: rgb(255 , 255 , 255)&quot;&gt;&lt;font style=&quot;font-size: 10px&quot;&gt;iterm_windup&amp;nbsp;&lt;/font&gt;&lt;/span&gt;&lt;/p&gt;&lt;p&gt;&lt;span style=&quot;color: rgb(36 , 41 , 46) ; background-color: rgb(255 , 255 , 255)&quot;&gt;&lt;font style=&quot;font-size: 10px&quot;&gt;(4.2 upd)&lt;/font&gt;&lt;/span&gt;&lt;br&gt;&lt;/p&gt;&lt;/div&gt;&lt;/div&gt;&lt;/div&gt;&lt;/div&gt;&lt;/div&gt;&lt;/div&gt;&lt;/div&gt;&lt;/div&gt;" style="shape=process;whiteSpace=wrap;html=1;backgroundOutline=1;strokeWidth=1;size=0.07692307692307693;fillColor=#FFFFFF;" parent="1" vertex="1">
          <mxGeometry x="1160" y="530" width="110" height="40" as="geometry" />
        </mxCell>
        <mxCell id="hB5kVmbyOagr3X4HZB57-3" style="edgeStyle=orthogonalEdgeStyle;rounded=0;orthogonalLoop=1;jettySize=auto;html=1;entryX=0;entryY=0.5;entryDx=0;entryDy=0;entryPerimeter=0;strokeWidth=2;" parent="1" source="g_LAPnDDZJ9LDUpSgcGy-49" target="w2lD-hBrVrexgJdN9BYj-7" edge="1">
          <mxGeometry relative="1" as="geometry">
            <Array as="points">
              <mxPoint x="1300" y="502" />
              <mxPoint x="1300" y="488" />
            </Array>
          </mxGeometry>
        </mxCell>
        <mxCell id="g_LAPnDDZJ9LDUpSgcGy-49" value="&lt;div class=&quot;page&quot; title=&quot;Page 1&quot;&gt;&lt;div class=&quot;section&quot;&gt;&lt;div class=&quot;layoutArea&quot;&gt;&lt;div class=&quot;column&quot;&gt;&lt;div class=&quot;page&quot; title=&quot;Page 1&quot;&gt;&lt;div class=&quot;section&quot;&gt;&lt;div class=&quot;layoutArea&quot; style=&quot;font-size: 10px&quot;&gt;&lt;div class=&quot;column&quot; style=&quot;line-height: 50%&quot;&gt;&lt;p&gt;iterm_rotation(3.4)&lt;/p&gt;&lt;/div&gt;&lt;/div&gt;&lt;/div&gt;&lt;/div&gt;&lt;/div&gt;&lt;/div&gt;&lt;/div&gt;&lt;/div&gt;" style="shape=process;whiteSpace=wrap;html=1;backgroundOutline=1;strokeWidth=1;size=0.07692307692307693;fillColor=#FFFFFF;strokeColor=#97D077;" parent="1" vertex="1">
          <mxGeometry x="1160" y="492.5" width="110" height="20" as="geometry" />
        </mxCell>
        <mxCell id="g_LAPnDDZJ9LDUpSgcGy-52" style="edgeStyle=orthogonalEdgeStyle;rounded=0;orthogonalLoop=1;jettySize=auto;html=1;endArrow=classic;endFill=0;strokeWidth=4;fontSize=12;exitX=1;exitY=0.5;exitDx=0;exitDy=0;entryX=0;entryY=0.5;entryDx=0;entryDy=0;strokeColor=#FF9933;" parent="1" source="WWWGr8wKS7NOQKFkhAS5-21" target="WWWGr8wKS7NOQKFkhAS5-18" edge="1">
          <mxGeometry relative="1" as="geometry">
            <mxPoint x="170" y="745.625" as="sourcePoint" />
            <mxPoint x="329.39" y="650" as="targetPoint" />
            <Array as="points">
              <mxPoint x="160" y="623" />
              <mxPoint x="220" y="623" />
            </Array>
          </mxGeometry>
        </mxCell>
        <mxCell id="g_LAPnDDZJ9LDUpSgcGy-53" value="&lt;span style=&quot;color: rgba(0 , 0 , 0 , 0) ; font-family: monospace ; font-size: 0px ; background-color: rgb(248 , 249 , 250)&quot;&gt;%3CmxGraphModel%3E%3Croot%3E%3CmxCell%20id%3D%220%22%2F%3E%3CmxCell%20id%3D%221%22%20parent%3D%220%22%2F%3E%3CmxCell%20id%3D%222%22%20value%3D%22R%2FP%2FY%22%20style%3D%22edgeLabel%3Balign%3Dcenter%3BverticalAlign%3Dmiddle%3Bresizable%3D0%3Bpoints%3D%5B%5D%3BfontSize%3D12%3BspacingLeft%3D5%3BspacingRight%3D5%3BspacingBottom%3D5%3BspacingTop%3D5%3Bspacing%3D5%3Bhtml%3D1%3B%22%20vertex%3D%221%22%20connectable%3D%220%22%20parent%3D%221%22%3E%3CmxGeometry%20x%3D%22262.5833333333335%22%20y%3D%22580.0000000000002%22%20as%3D%22geometry%22%2F%3E%3C%2FmxCell%3E%3C%2Froot%3E%3C%2FmxGraphModel%3ER&lt;/span&gt;" style="edgeLabel;html=1;align=center;verticalAlign=middle;resizable=0;points=[];fontSize=12;" parent="g_LAPnDDZJ9LDUpSgcGy-52" vertex="1" connectable="0">
          <mxGeometry x="0.4379" y="-1" relative="1" as="geometry">
            <mxPoint as="offset" />
          </mxGeometry>
        </mxCell>
        <mxCell id="g_LAPnDDZJ9LDUpSgcGy-54" value="R/P/Y" style="edgeLabel;html=1;align=center;verticalAlign=middle;resizable=0;points=[];fontSize=12;" parent="g_LAPnDDZJ9LDUpSgcGy-52" vertex="1" connectable="0">
          <mxGeometry x="0.5075" relative="1" as="geometry">
            <mxPoint x="-35" as="offset" />
          </mxGeometry>
        </mxCell>
        <mxCell id="g_LAPnDDZJ9LDUpSgcGy-56" style="edgeStyle=orthogonalEdgeStyle;rounded=0;jumpStyle=arc;orthogonalLoop=1;jettySize=auto;html=1;strokeWidth=3;strokeColor=#FF9933;entryX=0.25;entryY=1;entryDx=0;entryDy=0;exitX=0.5;exitY=0;exitDx=0;exitDy=0;" parent="1" source="RuyqhTZgdlnSvw2_jLQb-1" target="WWWGr8wKS7NOQKFkhAS5-4" edge="1">
          <mxGeometry relative="1" as="geometry">
            <Array as="points">
              <mxPoint x="958" y="660" />
              <mxPoint x="943" y="660" />
            </Array>
          </mxGeometry>
        </mxCell>
        <mxCell id="RuyqhTZgdlnSvw2_jLQb-3" style="edgeStyle=orthogonalEdgeStyle;rounded=0;orthogonalLoop=1;jettySize=auto;html=1;entryX=0.5;entryY=1;entryDx=0;entryDy=0;strokeWidth=3;strokeColor=#A680B8;" edge="1" parent="1" source="g_LAPnDDZJ9LDUpSgcGy-55" target="WWWGr8wKS7NOQKFkhAS5-4">
          <mxGeometry relative="1" as="geometry">
            <Array as="points">
              <mxPoint x="1030" y="709" />
              <mxPoint x="1030" y="650" />
              <mxPoint x="958" y="650" />
              <mxPoint x="958" y="607" />
            </Array>
          </mxGeometry>
        </mxCell>
        <mxCell id="RuyqhTZgdlnSvw2_jLQb-9" value="R/P" style="edgeLabel;html=1;align=center;verticalAlign=middle;resizable=0;points=[];" vertex="1" connectable="0" parent="RuyqhTZgdlnSvw2_jLQb-3">
          <mxGeometry x="0.0695" relative="1" as="geometry">
            <mxPoint as="offset" />
          </mxGeometry>
        </mxCell>
        <mxCell id="g_LAPnDDZJ9LDUpSgcGy-55" value="&lt;div class=&quot;page&quot; title=&quot;Page 1&quot;&gt;&lt;div class=&quot;section&quot;&gt;&lt;div class=&quot;layoutArea&quot;&gt;&lt;div class=&quot;column&quot;&gt;&lt;div class=&quot;page&quot; title=&quot;Page 1&quot;&gt;&lt;div class=&quot;section&quot;&gt;&lt;div class=&quot;layoutArea&quot; style=&quot;font-size: 10px&quot;&gt;&lt;div class=&quot;column&quot; style=&quot;line-height: 50%&quot;&gt;&lt;p&gt;&lt;span style=&quot;background-color: rgb(255 , 255 , 255) ; color: rgb(36 , 41 , 46)&quot;&gt;acc_limit (4.2)&lt;/span&gt;&lt;br&gt;&lt;/p&gt;&lt;/div&gt;&lt;/div&gt;&lt;/div&gt;&lt;/div&gt;&lt;/div&gt;&lt;/div&gt;&lt;/div&gt;&lt;/div&gt;" style="shape=process;whiteSpace=wrap;html=1;backgroundOutline=1;strokeWidth=1;size=0.07692307692307693;fillColor=#FFFFFF;strokeColor=#CDA2BE;" parent="1" vertex="1">
          <mxGeometry x="902.78" y="698.75" width="111.22" height="21.25" as="geometry" />
        </mxCell>
        <mxCell id="g_LAPnDDZJ9LDUpSgcGy-69" value="Throttle" style="edgeLabel;html=1;align=center;verticalAlign=middle;resizable=0;points=[];" parent="1" vertex="1" connectable="0">
          <mxGeometry x="105" y="860" as="geometry" />
        </mxCell>
        <mxCell id="w2lD-hBrVrexgJdN9BYj-12" value="VBAT" style="rounded=1;whiteSpace=wrap;html=1;strokeWidth=1;fillColor=#FFD966;" parent="1" vertex="1">
          <mxGeometry x="50" y="30" width="110" height="56" as="geometry" />
        </mxCell>
        <mxCell id="w2lD-hBrVrexgJdN9BYj-15" value="ADC" style="rounded=1;whiteSpace=wrap;html=1;strokeWidth=1;fillColor=#FFD966;dashed=1;" parent="1" vertex="1">
          <mxGeometry x="150" y="44" width="55" height="28" as="geometry" />
        </mxCell>
        <mxCell id="B2t_GY5lvsCgVpnPcRMf-5" value="" style="group" parent="1" vertex="1" connectable="0">
          <mxGeometry x="50" y="450" width="140" height="62.5" as="geometry" />
        </mxCell>
        <mxCell id="WWWGr8wKS7NOQKFkhAS5-27" value="&lt;font size=&quot;1&quot;&gt;ESC&lt;/font&gt;" style="rounded=1;whiteSpace=wrap;html=1;fillColor=#FFF2CC;" parent="B2t_GY5lvsCgVpnPcRMf-5" vertex="1">
          <mxGeometry width="110" height="62.5" as="geometry" />
        </mxCell>
        <mxCell id="B2t_GY5lvsCgVpnPcRMf-1" value="RPM" style="rounded=1;whiteSpace=wrap;html=1;strokeWidth=1;dashed=1;fillColor=#FFF2CC;" parent="B2t_GY5lvsCgVpnPcRMf-5" vertex="1">
          <mxGeometry x="85" y="17.25" width="55" height="28" as="geometry" />
        </mxCell>
        <mxCell id="YZIkhoDz0om83u3jAHZu-43" value="D" style="whiteSpace=wrap;html=1;aspect=fixed;fillColor=#FFFFFF;fontSize=12;" parent="1" vertex="1">
          <mxGeometry x="1044.0000000000002" y="760" width="60" height="60" as="geometry" />
        </mxCell>
        <mxCell id="YZIkhoDz0om83u3jAHZu-41" value="P" style="whiteSpace=wrap;html=1;aspect=fixed;fillColor=#FFFFFF;fontSize=12;" parent="1" vertex="1">
          <mxGeometry x="1045.6100000000001" y="410" width="60" height="60" as="geometry" />
        </mxCell>
        <mxCell id="WWWGr8wKS7NOQKFkhAS5-4" value="&lt;div&gt;&lt;font style=&quot;font-size: 40px&quot;&gt;∫&lt;/font&gt;&lt;/div&gt;" style="whiteSpace=wrap;html=1;aspect=fixed;fillColor=#FFFFFF;fontSize=12;" parent="1" vertex="1">
          <mxGeometry x="928.39" y="546.88" width="60" height="60" as="geometry" />
        </mxCell>
        <mxCell id="WWWGr8wKS7NOQKFkhAS5-5" style="edgeStyle=orthogonalEdgeStyle;rounded=0;orthogonalLoop=1;jettySize=auto;html=1;strokeWidth=2;fontSize=12;" parent="1" source="WWWGr8wKS7NOQKFkhAS5-4" target="YZIkhoDz0om83u3jAHZu-42" edge="1">
          <mxGeometry relative="1" as="geometry" />
        </mxCell>
        <mxCell id="hB5kVmbyOagr3X4HZB57-1" style="edgeStyle=orthogonalEdgeStyle;rounded=0;orthogonalLoop=1;jettySize=auto;html=1;strokeWidth=2;" parent="1" source="YZIkhoDz0om83u3jAHZu-42" target="g_LAPnDDZJ9LDUpSgcGy-46" edge="1">
          <mxGeometry relative="1" as="geometry" />
        </mxCell>
        <mxCell id="YZIkhoDz0om83u3jAHZu-42" value="I" style="whiteSpace=wrap;html=1;aspect=fixed;fillColor=#FFFFFF;fontSize=12;" parent="1" vertex="1">
          <mxGeometry x="1044.0000000000002" y="546.87" width="60" height="60" as="geometry" />
        </mxCell>
        <mxCell id="g_LAPnDDZJ9LDUpSgcGy-58" value="&lt;p style=&quot;line-height: 100%&quot;&gt;Version 0.10&lt;/p&gt;" style="html=1;whiteSpace=wrap;container=0;recursiveResize=0;collapsible=0;strokeWidth=1;fillColor=none;spacingLeft=30;" parent="1" vertex="1">
          <mxGeometry x="1530" y="980" width="100" height="30" as="geometry" />
        </mxCell>
        <mxCell id="g_LAPnDDZJ9LDUpSgcGy-59" value="" style="triangle;html=1;whiteSpace=wrap;" parent="1" vertex="1">
          <mxGeometry x="1548.4189257450748" y="987.5" width="8.41892574507493" height="15" as="geometry" />
        </mxCell>
        <mxCell id="YZIkhoDz0om83u3jAHZu-46" style="edgeStyle=orthogonalEdgeStyle;rounded=0;orthogonalLoop=1;jettySize=auto;html=1;entryX=0;entryY=0.75;entryDx=0;entryDy=0;entryPerimeter=0;strokeWidth=2;fontSize=12;exitX=1;exitY=0.5;exitDx=0;exitDy=0;endFill=0;jumpStyle=arc;" parent="1" source="YZIkhoDz0om83u3jAHZu-43" target="w2lD-hBrVrexgJdN9BYj-7" edge="1">
          <mxGeometry relative="1" as="geometry">
            <mxPoint x="990" y="690" as="sourcePoint" />
            <Array as="points">
              <mxPoint x="1130" y="790" />
              <mxPoint x="1130" y="716" />
              <mxPoint x="1320" y="716" />
              <mxPoint x="1320" y="508" />
            </Array>
          </mxGeometry>
        </mxCell>
        <mxCell id="WWWGr8wKS7NOQKFkhAS5-7" style="edgeStyle=orthogonalEdgeStyle;rounded=0;orthogonalLoop=1;jettySize=auto;html=1;entryX=0;entryY=0.25;entryDx=0;entryDy=0;strokeWidth=2;fontSize=12;endFill=0;strokeColor=#FF9933;jumpStyle=arc;" parent="1" source="WWWGr8wKS7NOQKFkhAS5-6" target="WWWGr8wKS7NOQKFkhAS5-4" edge="1">
          <mxGeometry relative="1" as="geometry">
            <Array as="points">
              <mxPoint x="870" y="618" />
              <mxPoint x="870" y="562" />
            </Array>
          </mxGeometry>
        </mxCell>
        <mxCell id="RuyqhTZgdlnSvw2_jLQb-1" value="&lt;div class=&quot;page&quot; title=&quot;Page 1&quot;&gt;&lt;div class=&quot;section&quot;&gt;&lt;div class=&quot;layoutArea&quot;&gt;&lt;div class=&quot;column&quot;&gt;&lt;div class=&quot;page&quot; title=&quot;Page 1&quot;&gt;&lt;div class=&quot;section&quot;&gt;&lt;div class=&quot;layoutArea&quot; style=&quot;font-size: 10px&quot;&gt;&lt;div class=&quot;column&quot; style=&quot;line-height: 50%&quot;&gt;&lt;p&gt;&lt;span style=&quot;color: rgb(36 , 41 , 46) ; font-family: , &amp;#34;blinkmacsystemfont&amp;#34; , &amp;#34;segoe ui&amp;#34; , &amp;#34;helvetica&amp;#34; , &amp;#34;arial&amp;#34; , sans-serif , &amp;#34;apple color emoji&amp;#34; , &amp;#34;segoe ui emoji&amp;#34; ; background-color: rgb(255 , 255 , 255)&quot;&gt;iterm limits (?)&lt;/span&gt;&lt;/p&gt;&lt;/div&gt;&lt;/div&gt;&lt;/div&gt;&lt;/div&gt;&lt;/div&gt;&lt;/div&gt;&lt;/div&gt;&lt;/div&gt;" style="shape=process;whiteSpace=wrap;html=1;backgroundOutline=1;strokeWidth=1;size=0.07692307692307693;fillColor=#FFFFFF;" vertex="1" parent="1">
          <mxGeometry x="902.78" y="675" width="111.22" height="20.62" as="geometry" />
        </mxCell>
        <mxCell id="RuyqhTZgdlnSvw2_jLQb-5" style="edgeStyle=orthogonalEdgeStyle;rounded=0;orthogonalLoop=1;jettySize=auto;html=1;strokeColor=#FF0000;strokeWidth=3;entryX=0.807;entryY=1.002;entryDx=0;entryDy=0;entryPerimeter=0;" edge="1" parent="1" source="RuyqhTZgdlnSvw2_jLQb-4" target="WWWGr8wKS7NOQKFkhAS5-4">
          <mxGeometry relative="1" as="geometry">
            <mxPoint x="960" y="610" as="targetPoint" />
            <Array as="points">
              <mxPoint x="1050" y="733" />
              <mxPoint x="1050" y="630" />
              <mxPoint x="977" y="630" />
            </Array>
          </mxGeometry>
        </mxCell>
        <mxCell id="RuyqhTZgdlnSvw2_jLQb-10" value="Y" style="edgeLabel;html=1;align=center;verticalAlign=middle;resizable=0;points=[];" vertex="1" connectable="0" parent="RuyqhTZgdlnSvw2_jLQb-5">
          <mxGeometry x="-0.1785" y="-1" relative="1" as="geometry">
            <mxPoint as="offset" />
          </mxGeometry>
        </mxCell>
        <mxCell id="RuyqhTZgdlnSvw2_jLQb-4" value="&lt;div class=&quot;page&quot; title=&quot;Page 1&quot;&gt;&lt;div class=&quot;section&quot;&gt;&lt;div class=&quot;layoutArea&quot;&gt;&lt;div class=&quot;column&quot;&gt;&lt;div class=&quot;page&quot; title=&quot;Page 1&quot;&gt;&lt;div class=&quot;section&quot;&gt;&lt;div class=&quot;layoutArea&quot; style=&quot;font-size: 10px&quot;&gt;&lt;div class=&quot;column&quot; style=&quot;line-height: 50%&quot;&gt;&lt;p&gt;&lt;span style=&quot;background-color: rgb(255 , 255 , 255) ; color: rgb(36 , 41 , 46)&quot;&gt;acc_limit_yaw (4.2)&lt;/span&gt;&lt;br&gt;&lt;/p&gt;&lt;/div&gt;&lt;/div&gt;&lt;/div&gt;&lt;/div&gt;&lt;/div&gt;&lt;/div&gt;&lt;/div&gt;&lt;/div&gt;" style="shape=process;whiteSpace=wrap;html=1;backgroundOutline=1;strokeWidth=1;size=0.07692307692307693;fillColor=#FFFFFF;strokeColor=#CDA2BE;" vertex="1" parent="1">
          <mxGeometry x="902.78" y="722.5" width="111.22" height="21.25" as="geometry" />
        </mxCell>
        <mxCell id="RuyqhTZgdlnSvw2_jLQb-7" value="&lt;span style=&quot;line-height: 100%&quot;&gt;&lt;font style=&quot;font-size: 10px&quot;&gt;setpoint&lt;/font&gt;&lt;/span&gt;" style="html=1;shadow=0;dashed=0;align=center;verticalAlign=middle;shape=mxgraph.arrows2.arrow;dy=0.42;dx=22.33;notch=4.67;strokeColor=#CDA2BE;strokeWidth=1;" vertex="1" parent="1">
          <mxGeometry x="838" y="705" width="50" height="30" as="geometry" />
        </mxCell>
        <mxCell id="RuyqhTZgdlnSvw2_jLQb-8" value="" style="shape=curlyBracket;whiteSpace=wrap;html=1;rounded=1;strokeColor=#CDA2BE;" vertex="1" parent="1">
          <mxGeometry x="890" y="700" width="10" height="40" as="geometry" />
        </mxCell>
        <mxCell id="RuyqhTZgdlnSvw2_jLQb-12" value="Signals - Roll / Pitch / Yaw" parent="0" />
        <mxCell id="RuyqhTZgdlnSvw2_jLQb-13" value="Signals - Roll / Pitch" parent="0" />
        <mxCell id="RuyqhTZgdlnSvw2_jLQb-14" value="Signals - Yaw" parent="0" />
        <mxCell id="RuyqhTZgdlnSvw2_jLQb-15" value="Signals - Throttle" parent="0" />
        <mxCell id="RuyqhTZgdlnSvw2_jLQb-23" style="edgeStyle=orthogonalEdgeStyle;rounded=0;orthogonalLoop=1;jettySize=auto;html=1;entryX=0;entryY=0.5;entryDx=0;entryDy=0;endArrow=classic;endFill=0;strokeWidth=4;fontSize=12;exitX=1;exitY=0.5;exitDx=0;exitDy=0;strokeColor=#A9C4EB;" edge="1" parent="RuyqhTZgdlnSvw2_jLQb-15">
          <mxGeometry relative="1" as="geometry">
            <mxPoint x="160" y="751.25" as="sourcePoint" />
            <Array as="points">
              <mxPoint x="210" y="751" />
              <mxPoint x="210" y="810" />
            </Array>
            <mxPoint x="270" y="810" as="targetPoint" />
          </mxGeometry>
        </mxCell>
        <mxCell id="RuyqhTZgdlnSvw2_jLQb-24" style="edgeStyle=orthogonalEdgeStyle;rounded=0;orthogonalLoop=1;jettySize=auto;html=1;endArrow=classic;endFill=0;strokeWidth=4;fontSize=12;exitX=1;exitY=0.25;exitDx=0;exitDy=0;strokeColor=#A9C4EB;entryX=0;entryY=0.75;entryDx=0;entryDy=0;" edge="1" parent="RuyqhTZgdlnSvw2_jLQb-15">
          <mxGeometry relative="1" as="geometry">
            <mxPoint x="160" y="735.625" as="sourcePoint" />
            <mxPoint x="319.39" y="640" as="targetPoint" />
            <Array as="points">
              <mxPoint x="210" y="736" />
              <mxPoint x="210" y="640" />
            </Array>
          </mxGeometry>
        </mxCell>
        <mxCell id="RuyqhTZgdlnSvw2_jLQb-25" value="&lt;span style=&quot;color: rgba(0 , 0 , 0 , 0) ; font-family: monospace ; font-size: 0px ; background-color: rgb(248 , 249 , 250)&quot;&gt;%3CmxGraphModel%3E%3Croot%3E%3CmxCell%20id%3D%220%22%2F%3E%3CmxCell%20id%3D%221%22%20parent%3D%220%22%2F%3E%3CmxCell%20id%3D%222%22%20value%3D%22R%2FP%2FY%22%20style%3D%22edgeLabel%3Balign%3Dcenter%3BverticalAlign%3Dmiddle%3Bresizable%3D0%3Bpoints%3D%5B%5D%3BfontSize%3D12%3BspacingLeft%3D5%3BspacingRight%3D5%3BspacingBottom%3D5%3BspacingTop%3D5%3Bspacing%3D5%3Bhtml%3D1%3B%22%20vertex%3D%221%22%20connectable%3D%220%22%20parent%3D%221%22%3E%3CmxGeometry%20x%3D%22262.5833333333335%22%20y%3D%22580.0000000000002%22%20as%3D%22geometry%22%2F%3E%3C%2FmxCell%3E%3C%2Froot%3E%3C%2FmxGraphModel%3ER&lt;/span&gt;" style="edgeLabel;html=1;align=center;verticalAlign=middle;resizable=0;points=[];fontSize=12;" vertex="1" connectable="0" parent="RuyqhTZgdlnSvw2_jLQb-24">
          <mxGeometry x="0.4379" y="-1" relative="1" as="geometry">
            <mxPoint as="offset" />
          </mxGeometry>
        </mxCell>
        <mxCell id="RuyqhTZgdlnSvw2_jLQb-26" value="&lt;span style=&quot;color: rgb(0, 0, 0); font-family: helvetica; font-style: normal; font-weight: 400; letter-spacing: normal; text-indent: 0px; text-transform: none; word-spacing: 0px; background-color: rgb(255, 255, 255); display: inline; float: none; line-height: 100%; font-size: 10px;&quot;&gt;&lt;font style=&quot;font-size: 10px;&quot;&gt;Throttle&lt;/font&gt;&lt;/span&gt;" style="text;whiteSpace=wrap;html=1;spacing=0;align=center;verticalAlign=middle;fontSize=10;" vertex="1" parent="RuyqhTZgdlnSvw2_jLQb-15">
          <mxGeometry x="180" y="650" width="50" height="20" as="geometry" />
        </mxCell>
        <mxCell id="RuyqhTZgdlnSvw2_jLQb-27" value="&lt;span style=&quot;color: rgb(0, 0, 0); font-family: helvetica; font-style: normal; font-weight: 400; letter-spacing: normal; text-indent: 0px; text-transform: none; word-spacing: 0px; background-color: rgb(255, 255, 255); display: inline; float: none; line-height: 100%; font-size: 10px;&quot;&gt;&lt;font style=&quot;font-size: 10px;&quot;&gt;Throttle&lt;/font&gt;&lt;/span&gt;" style="text;whiteSpace=wrap;html=1;spacing=0;align=center;verticalAlign=middle;fontSize=10;" vertex="1" parent="RuyqhTZgdlnSvw2_jLQb-15">
          <mxGeometry x="190" y="780" width="50" height="20" as="geometry" />
        </mxCell>
        <mxCell id="RuyqhTZgdlnSvw2_jLQb-28" style="edgeStyle=orthogonalEdgeStyle;rounded=0;jumpStyle=arc;orthogonalLoop=1;jettySize=auto;html=1;entryX=0;entryY=0.5;entryDx=0;entryDy=0;strokeColor=#A9C4EB;strokeWidth=4;exitX=1;exitY=0.75;exitDx=0;exitDy=0;" edge="1" parent="RuyqhTZgdlnSvw2_jLQb-15">
          <mxGeometry relative="1" as="geometry">
            <mxPoint x="160" y="766.875" as="sourcePoint" />
            <Array as="points">
              <mxPoint x="190" y="767" />
              <mxPoint x="190" y="899" />
            </Array>
            <mxPoint x="270" y="898.75" as="targetPoint" />
          </mxGeometry>
        </mxCell>
        <mxCell id="RuyqhTZgdlnSvw2_jLQb-29" value="&lt;span style=&quot;color: rgb(0, 0, 0); font-family: helvetica; font-style: normal; font-weight: 400; letter-spacing: normal; text-indent: 0px; text-transform: none; word-spacing: 0px; background-color: rgb(255, 255, 255); display: inline; float: none; line-height: 100%; font-size: 10px;&quot;&gt;&lt;font style=&quot;font-size: 10px;&quot;&gt;Throttle&lt;/font&gt;&lt;/span&gt;" style="text;whiteSpace=wrap;html=1;spacing=0;align=center;verticalAlign=middle;fontSize=10;" vertex="1" parent="RuyqhTZgdlnSvw2_jLQb-15">
          <mxGeometry x="160" y="840" width="50" height="20" as="geometry" />
        </mxCell>
        <mxCell id="RuyqhTZgdlnSvw2_jLQb-31" style="edgeStyle=orthogonalEdgeStyle;rounded=0;orthogonalLoop=1;jettySize=auto;html=1;endArrow=classic;endFill=0;strokeWidth=3;fontSize=12;entryX=0.5;entryY=1;entryDx=0;entryDy=0;strokeColor=#A9C4EB;" edge="1" parent="RuyqhTZgdlnSvw2_jLQb-15">
          <mxGeometry relative="1" as="geometry">
            <mxPoint x="635" y="782.5" as="targetPoint" />
            <mxPoint x="430" y="810" as="sourcePoint" />
          </mxGeometry>
        </mxCell>
        <mxCell id="RuyqhTZgdlnSvw2_jLQb-32" style="edgeStyle=orthogonalEdgeStyle;rounded=0;jumpStyle=arc;orthogonalLoop=1;jettySize=auto;html=1;strokeColor=#A9C4EB;strokeWidth=3;entryX=0;entryY=0.75;entryDx=0;entryDy=0;" edge="1" parent="RuyqhTZgdlnSvw2_jLQb-15">
          <mxGeometry relative="1" as="geometry">
            <Array as="points">
              <mxPoint x="830" y="899" />
              <mxPoint x="830" y="805" />
            </Array>
            <mxPoint x="430" y="898.8" as="sourcePoint" />
            <mxPoint x="1044" y="805" as="targetPoint" />
          </mxGeometry>
        </mxCell>
        <mxCell id="RuyqhTZgdlnSvw2_jLQb-33" style="edgeStyle=orthogonalEdgeStyle;rounded=0;jumpStyle=arc;orthogonalLoop=1;jettySize=auto;html=1;strokeColor=#A9C4EB;strokeWidth=3;exitX=1;exitY=0.5;exitDx=0;exitDy=0;entryX=0;entryY=0.75;entryDx=0;entryDy=0;" edge="1" parent="RuyqhTZgdlnSvw2_jLQb-15">
          <mxGeometry relative="1" as="geometry">
            <mxPoint x="430" y="898.75" as="sourcePoint" />
            <mxPoint x="1045.6100000000001" y="455" as="targetPoint" />
            <Array as="points">
              <mxPoint x="830" y="899" />
              <mxPoint x="830" y="455" />
            </Array>
          </mxGeometry>
        </mxCell>
        <mxCell id="RuyqhTZgdlnSvw2_jLQb-34" style="edgeStyle=orthogonalEdgeStyle;rounded=0;orthogonalLoop=1;jettySize=auto;html=1;endArrow=classic;endFill=0;strokeWidth=4;fontSize=12;entryX=0.5;entryY=1;entryDx=0;entryDy=0;strokeColor=#A9C4EB;" edge="1" parent="RuyqhTZgdlnSvw2_jLQb-15">
          <mxGeometry relative="1" as="geometry">
            <mxPoint x="920" y="940" as="targetPoint" />
            <Array as="points">
              <mxPoint x="105" y="990" />
              <mxPoint x="920" y="990" />
            </Array>
            <mxPoint x="105" y="782.5" as="sourcePoint" />
          </mxGeometry>
        </mxCell>
        <mxCell id="RuyqhTZgdlnSvw2_jLQb-35" style="edgeStyle=orthogonalEdgeStyle;rounded=0;orthogonalLoop=1;jettySize=auto;html=1;endArrow=classic;endFill=0;strokeWidth=4;fontSize=12;entryX=0.5;entryY=1;entryDx=0;entryDy=0;jumpStyle=none;strokeColor=#A9C4EB;" edge="1" parent="RuyqhTZgdlnSvw2_jLQb-15">
          <mxGeometry relative="1" as="geometry">
            <mxPoint x="1215.6100000000001" y="665" as="targetPoint" />
            <Array as="points">
              <mxPoint x="105" y="990" />
              <mxPoint x="1156" y="990" />
              <mxPoint x="1156" y="751" />
              <mxPoint x="1216" y="751" />
              <mxPoint x="1216" y="665" />
            </Array>
            <mxPoint x="105" y="782.5" as="sourcePoint" />
          </mxGeometry>
        </mxCell>
        <mxCell id="RuyqhTZgdlnSvw2_jLQb-36" value="" style="edgeStyle=orthogonalEdgeStyle;rounded=0;orthogonalLoop=1;jettySize=auto;html=1;entryX=0;entryY=0.5;entryDx=0;entryDy=0;endArrow=classic;endFill=0;strokeWidth=4;fontSize=12;strokeColor=#A9C4EB;" edge="1" parent="RuyqhTZgdlnSvw2_jLQb-15">
          <mxGeometry relative="1" as="geometry">
            <Array as="points">
              <mxPoint x="220" y="193" />
              <mxPoint x="220" y="193" />
            </Array>
            <mxPoint x="160" y="192.5" as="sourcePoint" />
            <mxPoint x="260" y="192.5" as="targetPoint" />
          </mxGeometry>
        </mxCell>
        <mxCell id="RuyqhTZgdlnSvw2_jLQb-37" value="Throttle" style="edgeLabel;html=1;align=center;verticalAlign=middle;resizable=0;points=[];" vertex="1" connectable="0" parent="RuyqhTZgdlnSvw2_jLQb-36">
          <mxGeometry x="0.2" y="7" relative="1" as="geometry">
            <mxPoint x="-10" y="6.979999999999997" as="offset" />
          </mxGeometry>
        </mxCell>
        <mxCell id="RuyqhTZgdlnSvw2_jLQb-38" style="edgeStyle=orthogonalEdgeStyle;rounded=0;orthogonalLoop=1;jettySize=auto;html=1;entryX=0;entryY=0.5;entryDx=0;entryDy=0;endArrow=classic;endFill=0;strokeColor=#A9C4EB;strokeWidth=4;fontSize=12;exitX=1;exitY=0.25;exitDx=0;exitDy=0;" edge="1" parent="RuyqhTZgdlnSvw2_jLQb-15">
          <mxGeometry relative="1" as="geometry">
            <Array as="points">
              <mxPoint x="400" y="178" />
              <mxPoint x="400" y="105" />
            </Array>
            <mxPoint x="330" y="177.5" as="sourcePoint" />
            <mxPoint x="460" y="105" as="targetPoint" />
          </mxGeometry>
        </mxCell>
        <mxCell id="RuyqhTZgdlnSvw2_jLQb-39" style="edgeStyle=orthogonalEdgeStyle;rounded=0;orthogonalLoop=1;jettySize=auto;html=1;endArrow=classic;endFill=0;strokeColor=#A9C4EB;strokeWidth=4;fontSize=12;entryX=0;entryY=0.5;entryDx=0;entryDy=0;" edge="1" parent="RuyqhTZgdlnSvw2_jLQb-15">
          <mxGeometry relative="1" as="geometry">
            <mxPoint x="460" y="192.5" as="targetPoint" />
            <Array as="points">
              <mxPoint x="400" y="193" />
              <mxPoint x="420" y="193" />
            </Array>
            <mxPoint x="330" y="192.5" as="sourcePoint" />
          </mxGeometry>
        </mxCell>
        <mxCell id="RuyqhTZgdlnSvw2_jLQb-40" style="edgeStyle=orthogonalEdgeStyle;rounded=0;orthogonalLoop=1;jettySize=auto;html=1;entryX=0;entryY=0.5;entryDx=0;entryDy=0;endArrow=classic;endFill=0;strokeColor=#A9C4EB;strokeWidth=4;fontSize=12;" edge="1" parent="RuyqhTZgdlnSvw2_jLQb-15">
          <mxGeometry relative="1" as="geometry">
            <mxPoint x="590" y="105" as="sourcePoint" />
            <mxPoint x="660" y="105" as="targetPoint" />
          </mxGeometry>
        </mxCell>
        <mxCell id="RuyqhTZgdlnSvw2_jLQb-41" style="edgeStyle=orthogonalEdgeStyle;rounded=0;orthogonalLoop=1;jettySize=auto;html=1;entryX=0.25;entryY=0;entryDx=0;entryDy=0;endArrow=classic;endFill=0;strokeColor=#A9C4EB;strokeWidth=4;fontSize=12;exitX=1;exitY=0.5;exitDx=0;exitDy=0;" edge="1" parent="RuyqhTZgdlnSvw2_jLQb-15">
          <mxGeometry relative="1" as="geometry">
            <Array as="points">
              <mxPoint x="1400" y="105" />
              <mxPoint x="1400" y="330" />
              <mxPoint x="1507" y="330" />
            </Array>
            <mxPoint x="730" y="105" as="sourcePoint" />
            <mxPoint x="1506.5849999999996" y="450" as="targetPoint" />
          </mxGeometry>
        </mxCell>
        <mxCell id="RuyqhTZgdlnSvw2_jLQb-42" value="&lt;font size=&quot;1&quot;&gt;Throttle&lt;/font&gt;" style="rounded=1;whiteSpace=wrap;html=1;fillColor=#A9C4EB;" vertex="1" parent="RuyqhTZgdlnSvw2_jLQb-15">
          <mxGeometry x="50" y="720" width="110" height="62.5" as="geometry" />
        </mxCell>
      </root>
    </mxGraphModel>
  </diagram>
</mxfile>
